<svg xmlns="http://www.w3.org/2000/svg" width="33" height="36">
    <path fill="#666" fill-rule="evenodd" d="M31.217 26.33l-5.259-3.625c-.782-.542-1.596-.816-2.421-.816-.852 0-1.48.304-1.85.549l-.403.331a9.84 9.84 0 0 1-.857.814c-.27.229-.678.025-.938-.224-.832-.799-5.965-7.285-7.703-9.68-.111-.157-.24-.376-.216-.528.063-.401.866-.972 1.161-1.181l.196-.139c1.439-1.057 1.603-2.859 1.145-4.083-.239-.648-2.379-5.346-2.627-5.852C10.837.638 9.864 0 8.552 0c-.667 0-2.718.232-4.155 1.288l-.239.174C3.07 2.225.809 3.816.809 7.166c0 3.8 2.663 9.315 8.14 16.863C14.938 32.286 22 36 25.101 36c3.291 0 5.997-3.86 6.764-5.351.915-1.798.333-3.466-.648-4.319z"/>
</svg>
