<svg xmlns="http://www.w3.org/2000/svg" width="39" height="37">
    <path fill="#666" fill-rule="evenodd" d="M37.94 36.948H1.904a.999.999 0 0 1-.991-1.007V22.973a.998.998 0 0 1 .991-1.006c.547 0 .991.45.991 1.006v11.962h34.054V22.973a.998.998 0 0 1 .991-1.006c.548 0 .991.45.991 1.006v12.968a.999.999 0 0 1-.991 1.007zm-17.516-8.537a.611.611 0 0 1-1.006 0l-9.106-13.275a.631.631 0 0 1-.041-.644.61.61 0 0 1 .544-.334h4.323V1.583c0-.345.274-.623.613-.623h8.339c.339 0 .614.278.614.623v12.575h4.325c.229 0 .438.128.543.334a.631.631 0 0 1-.04.644l-9.108 13.275z"/>
</svg>
