<?xml version="1.0" encoding="utf-8"?>
<!-- Generator: Adobe Illustrator 24.0.0, SVG Export Plug-In . SVG Version: 6.00 Build 0)  -->
<svg version="1.1" id="Layer_1" xmlns="http://www.w3.org/2000/svg" xmlns:xlink="http://www.w3.org/1999/xlink" x="0px" y="0px"
	 viewBox="0 0 180 40" style="enable-background:new 0 0 180 40;" xml:space="preserve">
<g>
	<g>
		<path style="fill:#356F52;" d="M38.4,2.2c-9.9,0-18,8-18,17.8c0,9.9,8.1,17.8,18,17.8c10,0,18-8,18-17.8
			C56.4,10.2,48.3,2.2,38.4,2.2z M38.4,36c-8.9,0-16.1-7.2-16.1-16S29.5,4,38.4,4c9,0,16.2,7.2,16.2,16C54.6,28.8,47.3,36,38.4,36z"
			/>
		<path style="fill:#356F52;" d="M44.7,21.5v1.7c1.4,0.2,2.4,1.3,2.4,2.9c0,1.1-0.9,2-2,2s-2-0.9-2-2V14c0-1.1,0.9-2,2-2s2,0.9,2,2
			c0,1.5-1.1,2.7-2.4,2.9v1.7c2.9-0.1,5.2-2.4,5.2-5.3c0-2.5-2-5.3-5-5.3c-2.5,0-4.7,2-4.7,4.6v5.9h-3.8v-5.9c0-2.5-2.1-4.6-4.7-4.6
			c-3.1,0-5,2.8-5,5.3c0,2.9,2.3,5.2,5.2,5.3v-1.7c-1.4-0.2-2.4-1.3-2.4-2.9c0-1,0.9-2,2-2s2,0.9,2,2V26c0,1.1-0.9,2-2,2s-2-0.9-2-2
			c0-1.5,1.1-2.7,2.4-2.9v-1.6c-2.9,0.1-5.2,2.4-5.2,5.3c0,2.5,2,5.3,5,5.3c2.5,0,4.7-2,4.7-4.6v-5.9h3.8v5.8c0,2.5,2.1,4.6,4.7,4.6
			c3.1,0,5-2.8,5-5.3C49.9,23.8,47.6,21.5,44.7,21.5z"/>
		<path style="fill:#356F52;" d="M158.3,5.2h-2.6v17.3h2.6V5.2z"/>
		<path style="fill:#356F52;" d="M72.9,5.2v7.4h-8.1V5.2h-2.6v17.3h2.6v-7.4h8.1v7.4h2.6V5.2H72.9z"/>
		<path style="fill:#356F52;" d="M88.1,5.2h-0.6l-8.3,17.3h2.3c0.4,0,0.7-0.2,0.8-0.6l1.7-3.7h7.2l1.8,3.7c0.1,0.3,0.5,0.5,0.8,0.5
			h2.3L88.1,5.2z M85.3,15.9l2.5-5.2l2.5,5.2H85.3z"/>
		<path style="fill:#356F52;" d="M124.7,5.2h-0.6l-8.2,17.3h2.3c0.4,0,0.7-0.2,0.8-0.6l1.7-3.7h7.2l1.8,3.7c0.1,0.3,0.5,0.5,0.8,0.5
			h2.3L124.7,5.2z M121.9,15.9l2.5-5.2l2.5,5.2H121.9z"/>
		<path style="fill:#356F52;" d="M111.3,14.4l-8.5-3.1c-0.3-0.1-0.5-0.5-0.4-0.8c0.5-1.6,1.9-2.7,3.7-2.7c1.6,0,2.9,1,3.5,2.3
			c0.2,0.6,0.8,0.5,0.9,0.5l1.8-0.5c-0.6-2.8-3.2-4.9-6.2-4.9c-3.2,0-5.8,2.3-6.3,5.3c0,0.1-0.1,0.3-0.1,0.4c0,0.1,0,0.1,0,0.2
			s0,0.2,0,0.2v0.1c0,0.8,0.5,1.4,1.1,1.7c0,0,6.7,2.5,8.6,3.2c0.5,0.2,0.4,0.8,0.4,0.8c-0.4,1.6-1.9,2.9-3.7,2.9
			c-1.7,0-3.1-1.1-3.6-2.5c-0.1-0.3-0.4-0.5-0.8-0.5l-1.9,0.5c0.6,2.9,3.2,5,6.3,5c3.1,0,5.7-2.2,6.3-5.1c0,0,0.1-0.4,0.1-0.6
			c0-0.2,0.1-0.6,0.1-0.6C112.5,15.3,112,14.6,111.3,14.4z"/>
		<path style="fill:#356F52;" d="M145.3,13.8l6.4-8.5H149c-0.3,0-0.5,0.1-0.7,0.4l-5.3,7.1h-3.7V5.2h-2.6v17.3h2.6v-7.4h3.8l5.2,7
			c0.2,0.2,0.4,0.4,0.8,0.4h2.8L145.3,13.8z"/>
		<path style="fill:#356F52;" d="M163.3,21.5c0-0.6-0.5-1.1-1.1-1.1c-0.6,0-1.1,0.5-1.1,1.1c0,0.6,0.5,1.1,1.1,1.1
			C162.9,22.5,163.3,22,163.3,21.5z"/>
		<path style="fill:#356F52;" d="M167.1,22.5h-0.3l-4.2-8.8h1.2c0.2,0,0.4,0.1,0.4,0.3l2.7,5.8l2.8-5.8c0.1-0.2,0.2-0.2,0.4-0.2h1.2
			L167.1,22.5z"/>
		<path style="fill:#356F52;" d="M178.1,13.7v5.8l-5.5-5.8h-0.4v8.8h1.4v-5.8l5.5,5.8h0.3v-8.8H178.1z"/>
		<path style="fill:#356F52;" d="M67.1,32.6c0,0.6-0.2,1.2-0.6,1.6c-0.5,0.4-1.1,0.6-1.8,0.6c-0.8,0-1.4-0.3-1.9-0.8
			c-0.5-0.5-0.7-1.2-0.7-2v-1.2c0-0.8,0.2-1.5,0.7-2c0.5-0.5,1.1-0.8,1.9-0.8c0.8,0,1.4,0.2,1.8,0.6c0.5,0.4,0.6,0.9,0.6,1.6h-0.9
			c0-0.5-0.1-0.8-0.4-1.1c-0.3-0.3-0.6-0.4-1.2-0.4c-0.5,0-0.9,0.2-1.2,0.6c-0.3,0.4-0.5,0.9-0.5,1.5V32c0,0.6,0.2,1.1,0.5,1.5
			c0.3,0.4,0.7,0.6,1.2,0.6c0.5,0,0.9-0.1,1.2-0.4c0.3-0.3,0.4-0.6,0.4-1.1H67.1z"/>
		<path style="fill:#356F52;" d="M68.9,30.4c0.2-0.2,0.4-0.4,0.6-0.6c0.2-0.2,0.5-0.2,0.8-0.2c0.5,0,0.9,0.2,1.2,0.5
			c0.3,0.4,0.5,0.8,0.5,1.5v3.2h-0.9v-3.2c0-0.4-0.1-0.7-0.3-0.9c-0.2-0.2-0.5-0.3-0.8-0.3c-0.3,0-0.5,0.1-0.7,0.2
			c-0.2,0.1-0.4,0.2-0.5,0.5v3.7h-0.9v-7.2h0.9L68.9,30.4L68.9,30.4z"/>
		<path style="fill:#356F52;" d="M76.4,34.8c-0.1-0.2-0.1-0.3-0.1-0.4c0-0.1,0-0.2-0.1-0.4c-0.2,0.2-0.4,0.5-0.6,0.6
			c-0.3,0.2-0.6,0.2-0.9,0.2c-0.5,0-0.9-0.1-1.2-0.4c-0.3-0.3-0.4-0.6-0.4-1.1s0.2-0.9,0.6-1.1c0.4-0.3,0.9-0.4,1.6-0.4h1v-0.5
			c0-0.3-0.1-0.5-0.3-0.7c-0.2-0.2-0.4-0.2-0.8-0.2c-0.3,0-0.5,0.1-0.7,0.2c-0.2,0.2-0.3,0.4-0.3,0.5h-0.9c0-0.4,0.2-0.7,0.5-1
			c0.4-0.3,0.8-0.5,1.4-0.5c0.6,0,1.1,0.1,1.4,0.4c0.4,0.3,0.5,0.7,0.5,1.2v2.4c0,0.2,0,0.4,0,0.5s0.1,0.4,0.1,0.5L76.4,34.8
			L76.4,34.8z M74.9,27.6h0.8l1.4,1.2H76l-0.8-0.7l-0.8,0.7h-0.9L74.9,27.6z M74.9,34.1c0.4,0,0.6-0.1,0.9-0.2
			c0.3-0.2,0.5-0.4,0.5-0.6v-0.8h-1.1c-0.4,0-0.6,0.1-0.9,0.3c-0.2,0.2-0.3,0.4-0.3,0.6c0,0.2,0.1,0.4,0.2,0.5
			C74.4,34,74.6,34.1,74.9,34.1z M77.3,26.8h1l-0.9,1.2h-0.7L77.3,26.8z"/>
		<path style="fill:#356F52;" d="M79.7,28.5v1.2h0.9v0.7h-0.9v3c0,0.2,0.1,0.4,0.2,0.5c0.1,0.1,0.2,0.1,0.4,0.1c0.1,0,0.1,0,0.2,0
			c0.1,0,0.1,0,0.2-0.1l0.1,0.6c-0.1,0.1-0.2,0.1-0.3,0.1c-0.1,0.1-0.3,0.1-0.4,0.1c-0.4,0-0.6-0.1-0.9-0.4c-0.2-0.2-0.4-0.6-0.4-1
			v-3H78v-0.7h0.8v-1.2L79.7,28.5L79.7,28.5z"/>
		<path style="fill:#356F52;" d="M84.8,34.8h-0.9v-7.2h0.9V34.8z"/>
		<path style="fill:#356F52;" d="M91.8,29.1c0,0.6-0.1,1-0.4,1.3c-0.3,0.3-0.7,0.5-1.3,0.5v3.9h-0.8L89.2,34
			c-0.2,0.3-0.4,0.5-0.6,0.6c-0.2,0.1-0.5,0.2-0.9,0.2c-0.5,0-1-0.2-1.3-0.5c-0.3-0.4-0.5-0.9-0.5-1.6v-3h0.9v3
			c0,0.5,0.1,0.9,0.2,1.1c0.2,0.2,0.4,0.3,0.8,0.3c0.4,0,0.6-0.1,0.8-0.2c0.2-0.1,0.4-0.3,0.5-0.6v-3.6h0.9v0.5
			c0.3,0,0.5-0.1,0.6-0.4c0.1-0.2,0.2-0.5,0.2-0.9L91.8,29.1L91.8,29.1z"/>
		<path style="fill:#356F52;" d="M91.3,32.2c0-0.8,0.2-1.3,0.6-1.8c0.4-0.5,0.9-0.7,1.7-0.7c0.3,0,0.6,0.1,0.9,0.2
			c0.2,0.1,0.5,0.2,0.7,0.5c0.2-0.1,0.5-0.2,0.6-0.4c0.1-0.2,0.2-0.5,0.2-0.8h0.8c0,0.5-0.1,0.8-0.3,1.1c-0.2,0.3-0.5,0.5-0.9,0.6
			c0.1,0.2,0.2,0.4,0.2,0.6c0.1,0.2,0.1,0.5,0.1,0.8v0.1c0,0.8-0.2,1.3-0.6,1.8c-0.4,0.5-0.9,0.7-1.7,0.7s-1.2-0.2-1.7-0.7
			c-0.4-0.5-0.6-1.1-0.6-1.8V32.2z M92.2,32.3c0,0.5,0.1,1,0.4,1.3c0.2,0.4,0.6,0.5,1,0.5c0.4,0,0.8-0.2,1-0.5
			c0.2-0.4,0.4-0.8,0.4-1.3v-0.1c0-0.5-0.1-0.9-0.4-1.3c-0.2-0.4-0.6-0.5-1-0.5c-0.4,0-0.8,0.2-1,0.5c-0.2,0.4-0.4,0.8-0.4,1.3V32.3
			z M94.1,36.3h-1v-0.9h1V36.3z"/>
		<path style="fill:#356F52;" d="M97.7,29.7l0.1,0.8c0.2-0.3,0.4-0.5,0.6-0.6c0.2-0.2,0.5-0.2,0.9-0.2c0.5,0,0.9,0.2,1.2,0.5
			c0.3,0.3,0.5,0.8,0.5,1.5v3.2H100v-3.2c0-0.5-0.1-0.8-0.2-0.9c-0.2-0.2-0.5-0.3-0.8-0.3c-0.3,0-0.5,0.1-0.7,0.2
			c-0.2,0.1-0.4,0.3-0.5,0.5v3.7h-0.9v-5L97.7,29.7L97.7,29.7z"/>
		<path style="fill:#356F52;" d="M102,32.4c0-0.8,0.2-1.5,0.5-1.9c0.4-0.5,0.8-0.8,1.5-0.8c0.3,0,0.6,0.1,0.8,0.2
			c0.2,0.1,0.5,0.3,0.6,0.5l0.1-0.6h0.7v5c0,0.6-0.2,1.1-0.6,1.5c-0.4,0.4-0.9,0.5-1.7,0.5c-0.2,0-0.5-0.1-0.8-0.1
			c-0.3-0.1-0.5-0.2-0.8-0.3l0.1-0.7c0.2,0.1,0.4,0.2,0.6,0.2c0.2,0.1,0.5,0.1,0.8,0.1c0.5,0,0.8-0.1,1-0.3c0.2-0.2,0.3-0.5,0.3-0.9
			v-0.6c-0.2,0.2-0.4,0.4-0.6,0.5c-0.2,0.1-0.5,0.2-0.8,0.2c-0.6,0-1.1-0.2-1.5-0.6c-0.4-0.5-0.5-1-0.5-1.8H102z M102.9,32.4
			c0,0.5,0.1,0.9,0.3,1.2c0.2,0.3,0.5,0.5,0.9,0.5c0.3,0,0.5-0.1,0.7-0.2c0.2-0.1,0.4-0.3,0.5-0.5v-2.3c-0.1-0.2-0.3-0.4-0.5-0.5
			c-0.2-0.1-0.4-0.2-0.7-0.2c-0.4,0-0.8,0.2-1,0.5C102.9,31.3,102.9,31.8,102.9,32.4L102.9,32.4L102.9,32.4z"/>
		<path style="fill:#356F52;" d="M111,28.5v1.2h0.9v0.7H111v3c0,0.2,0.1,0.4,0.2,0.5c0.1,0.1,0.2,0.1,0.4,0.1c0.1,0,0.1,0,0.2,0
			c0.1,0,0.1,0,0.2-0.1l0.1,0.6c-0.1,0.1-0.2,0.1-0.3,0.1c-0.1,0.1-0.3,0.1-0.4,0.1c-0.4,0-0.6-0.1-0.9-0.4c-0.2-0.2-0.4-0.6-0.4-1
			v-3h-0.8v-0.7h0.8v-1.2L111,28.5L111,28.5z"/>
		<path style="fill:#356F52;" d="M113.7,30.4c0.2-0.2,0.4-0.4,0.6-0.6c0.2-0.1,0.5-0.2,0.8-0.2c0.5,0,0.9,0.2,1.2,0.5
			c0.3,0.4,0.5,0.8,0.5,1.5v3.2H116v-3.2c0-0.4-0.1-0.7-0.3-0.9c-0.2-0.2-0.5-0.3-0.8-0.3c-0.3,0-0.5,0.1-0.7,0.2
			c-0.2,0.1-0.4,0.2-0.5,0.5v3.7h-0.9v-7.2h0.9L113.7,30.4L113.7,30.4z"/>
		<path style="fill:#356F52;" d="M121.2,34.8c-0.1-0.2-0.1-0.3-0.1-0.4c0-0.1,0-0.2-0.1-0.4c-0.2,0.2-0.4,0.5-0.6,0.6
			c-0.3,0.2-0.6,0.2-0.9,0.2c-0.5,0-0.9-0.1-1.2-0.4c-0.3-0.3-0.4-0.6-0.4-1.1s0.2-0.9,0.6-1.1c0.4-0.3,0.9-0.4,1.6-0.4h1v-0.5
			c0-0.3-0.1-0.5-0.3-0.7c-0.2-0.2-0.4-0.2-0.8-0.2c-0.3,0-0.5,0.1-0.7,0.2c-0.2,0.2-0.3,0.4-0.3,0.5h-0.9c0-0.4,0.2-0.7,0.5-1
			c0.4-0.3,0.8-0.5,1.4-0.5c0.6,0,1.1,0.1,1.4,0.4c0.4,0.3,0.5,0.7,0.5,1.2v2.4c0,0.2,0,0.4,0,0.5s0.1,0.4,0.1,0.5L121.2,34.8
			L121.2,34.8z M121.4,28.7v0.1h-0.8l-0.7-0.7l-0.7,0.7h-0.8v-0.1l1.2-1.1h0.6L121.4,28.7z M119.7,34.1c0.4,0,0.6-0.1,0.9-0.2
			c0.3-0.2,0.5-0.4,0.5-0.6v-0.8H120c-0.4,0-0.6,0.1-0.9,0.3c-0.2,0.2-0.4,0.4-0.4,0.6c0,0.2,0.1,0.4,0.2,0.5
			C119.2,34,119.4,34.1,119.7,34.1z M120.3,36.3h-1v-0.9h1V36.3z"/>
		<path style="fill:#356F52;" d="M124.5,28.5v1.2h0.9v0.7h-0.9v3c0,0.2,0.1,0.4,0.2,0.5c0.1,0.1,0.2,0.1,0.4,0.1c0.1,0,0.1,0,0.2,0
			s0.1,0,0.2-0.1l0.1,0.6c-0.1,0.1-0.2,0.1-0.3,0.1c-0.1,0.1-0.3,0.1-0.4,0.1c-0.4,0-0.6-0.1-0.9-0.4c-0.2-0.2-0.4-0.6-0.4-1v-3
			h-0.8v-0.7h0.8v-1.2L124.5,28.5L124.5,28.5z"/>
		<path style="fill:#356F52;" d="M131.4,32.3h-2.8v-0.7h2.8V32.3z"/>
		<path style="fill:#356F52;" d="M139.9,33.8c-0.2,0.2-0.5,0.5-0.8,0.7c-0.4,0.2-0.9,0.3-1.5,0.3c-0.8,0-1.4-0.2-1.9-0.8
			c-0.5-0.5-0.8-1.2-0.8-2v-1.4c0-0.8,0.2-1.5,0.8-2c0.5-0.5,1.1-0.8,1.9-0.8c0.8,0,1.4,0.2,1.8,0.6c0.4,0.4,0.6,0.9,0.6,1.5h-0.9
			c0-0.4-0.1-0.8-0.4-1c-0.3-0.3-0.6-0.4-1.1-0.4c-0.5,0-0.9,0.2-1.2,0.6c-0.3,0.4-0.5,0.9-0.5,1.5V32c0,0.6,0.2,1.1,0.5,1.5
			c0.4,0.4,0.8,0.6,1.3,0.6c0.4,0,0.7-0.1,0.9-0.2c0.2-0.1,0.4-0.2,0.5-0.4V32h-1.5v-0.6h2.5v2.5H139.9z"/>
		<path style="fill:#356F52;" d="M142.2,28.5h-0.9v-0.9h0.9V28.5z M142.2,34.8h-0.9v-5h0.9V34.8z"/>
		<path style="fill:#356F52;" d="M146.7,34.8c-0.1-0.2-0.1-0.3-0.1-0.4c0-0.1,0-0.2-0.1-0.3c-0.2,0.2-0.4,0.5-0.6,0.6
			c-0.3,0.2-0.6,0.2-0.9,0.2c-0.5,0-0.9-0.1-1.2-0.4c-0.3-0.3-0.4-0.6-0.4-1.1c0-0.5,0.2-0.9,0.6-1.1c0.4-0.3,0.9-0.4,1.6-0.4h1
			v-0.5c0-0.3-0.1-0.5-0.3-0.7c-0.2-0.2-0.4-0.2-0.8-0.2c-0.3,0-0.5,0.1-0.7,0.2c-0.2,0.2-0.3,0.4-0.3,0.5h-0.9c0-0.3,0.2-0.7,0.5-1
			c0.4-0.3,0.8-0.5,1.4-0.5c0.6,0,1.1,0.1,1.4,0.4c0.4,0.3,0.5,0.7,0.5,1.2v2.4c0,0.2,0,0.4,0,0.5s0.1,0.4,0.1,0.5L146.7,34.8
			L146.7,34.8z M145.1,34.1c0.4,0,0.6-0.1,0.9-0.2c0.3-0.2,0.5-0.4,0.5-0.6v-0.8h-1.1c-0.4,0-0.6,0.1-0.9,0.3s-0.4,0.4-0.4,0.6
			s0.1,0.4,0.2,0.5C144.6,34,144.8,34.1,145.1,34.1z M145.9,27.6h1.1l-1.2,1.2H145L145.9,27.6z"/>
		<path style="fill:#356F52;" d="M152.1,28.5v1.2h0.9v0.7h-0.9v3c0,0.2,0.1,0.4,0.2,0.5c0.1,0.1,0.2,0.1,0.4,0.1c0.1,0,0.1,0,0.2,0
			c0.1,0,0.1,0,0.2-0.1l0.1,0.6c-0.1,0.1-0.2,0.1-0.3,0.1c-0.1,0.1-0.3,0.1-0.4,0.1c-0.4,0-0.6-0.1-0.9-0.4c-0.2-0.2-0.4-0.6-0.4-1
			v-3h-0.8v-0.7h0.8v-1.2L152.1,28.5L152.1,28.5z"/>
		<path style="fill:#356F52;" d="M156.4,30.6h-0.5c-0.2,0-0.5,0.1-0.6,0.2c-0.2,0.1-0.3,0.3-0.4,0.5v3.6H154v-5h0.8l0.1,0.8
			c0.1-0.2,0.3-0.5,0.5-0.6c0.2-0.1,0.5-0.2,0.7-0.2c0.1,0,0.1,0,0.2,0c0.1,0,0.1,0,0.2,0.1L156.4,30.6z"/>
		<path style="fill:#356F52;" d="M158.2,36.3h-1v-0.9h1V36.3z M158.2,28.5h-0.9v-0.9h0.9V28.5z M158.2,34.8h-0.9v-5h0.9V34.8z"/>
		<path style="fill:#356F52;" d="M163,28.5v1.2h0.9v0.7H163v3c0,0.2,0.1,0.4,0.2,0.5c0.1,0.1,0.2,0.1,0.4,0.1c0.1,0,0.1,0,0.2,0
			c0.1,0,0.1,0,0.2-0.1l0.1,0.6c-0.1,0.1-0.2,0.1-0.3,0.1c-0.1,0.1-0.3,0.1-0.4,0.1c-0.4,0-0.6-0.1-0.9-0.4c-0.2-0.2-0.4-0.6-0.4-1
			v-3h-0.8v-0.7h0.8v-1.2L163,28.5L163,28.5z"/>
		<path style="fill:#356F52;" d="M165.7,30.4c0.2-0.2,0.4-0.4,0.6-0.6c0.2-0.1,0.5-0.2,0.8-0.2c0.5,0,0.9,0.2,1.2,0.5
			c0.3,0.4,0.5,0.8,0.5,1.5v3.2h-0.9v-3.2c0-0.4-0.1-0.7-0.3-0.9c-0.2-0.2-0.5-0.3-0.8-0.3c-0.3,0-0.5,0.1-0.7,0.2
			c-0.2,0.1-0.4,0.2-0.5,0.5v3.7h-0.9v-7.2h0.9L165.7,30.4L165.7,30.4z"/>
		<path style="fill:#356F52;" d="M173.2,34.8c-0.1-0.2-0.1-0.3-0.1-0.4c0-0.1,0-0.2-0.1-0.4c-0.2,0.2-0.4,0.5-0.6,0.6
			c-0.3,0.2-0.6,0.2-0.9,0.2c-0.5,0-0.9-0.1-1.2-0.4c-0.3-0.3-0.4-0.6-0.4-1.1s0.2-0.9,0.6-1.1c0.4-0.3,0.9-0.4,1.6-0.4h1v-0.5
			c0-0.3-0.1-0.5-0.3-0.7c-0.2-0.2-0.4-0.2-0.8-0.2c-0.3,0-0.5,0.1-0.7,0.2c-0.2,0.2-0.3,0.4-0.3,0.5h-0.9c0-0.4,0.2-0.7,0.5-1
			c0.4-0.3,0.8-0.5,1.4-0.5c0.6,0,1.1,0.1,1.4,0.4c0.4,0.3,0.5,0.7,0.5,1.2v2.4c0,0.2,0,0.4,0,0.5s0.1,0.4,0.1,0.5L173.2,34.8
			L173.2,34.8z M173.4,28.7v0.1h-0.8l-0.7-0.7l-0.7,0.7h-0.8v-0.1l1.2-1.1h0.6L173.4,28.7z M171.7,34.1c0.4,0,0.6-0.1,0.9-0.2
			c0.3-0.2,0.5-0.4,0.5-0.6v-0.8H172c-0.4,0-0.6,0.1-0.9,0.3c-0.2,0.2-0.4,0.4-0.4,0.6c0,0.2,0.1,0.4,0.2,0.5
			C171.2,34,171.4,34.1,171.7,34.1z M172.3,36.3h-1v-0.9h1V36.3z"/>
		<path style="fill:#356F52;" d="M176.5,28.5v1.2h0.9v0.7h-0.9v3c0,0.2,0.1,0.4,0.2,0.5c0.1,0.1,0.2,0.1,0.4,0.1c0.1,0,0.1,0,0.2,0
			c0.1,0,0.1,0,0.2-0.1l0.1,0.6c-0.1,0.1-0.2,0.1-0.3,0.1c-0.1,0.1-0.3,0.1-0.4,0.1c-0.4,0-0.6-0.1-0.9-0.4c-0.2-0.2-0.4-0.6-0.4-1
			v-3h-0.8v-0.7h0.8v-1.2L176.5,28.5L176.5,28.5z"/>
		<path style="fill:#356F52;" d="M179.3,32.5h-0.9V28h0.9V32.5z M179.3,34.8h-0.9v-0.9h0.9V34.8z"/>
	</g>
</g>
<g>
	<g>
		<g>
			
				<linearGradient id="SVGID_1_" gradientUnits="userSpaceOnUse" x1="-5.5562" y1="2.2508" x2="-2.819" y2="2.2508" gradientTransform="matrix(0.9548 -0.2971 0.2971 0.9548 17.8192 4.8805)">
				<stop  offset="0" style="stop-color:#FFFF47"/>
				<stop  offset="1" style="stop-color:#FFAA31"/>
			</linearGradient>
			<path style="fill:url(#SVGID_1_);" d="M13.4,8.9C13.4,8.9,13.4,8.9,13.4,8.9C13.4,8.9,13.4,9,13.4,8.9C13.3,9,13.3,9,13.3,9
				c0,0,0,0,0,0c0,0,0,0,0,0l0,0l0,0c0.1,0,0.4-0.2,0.9-0.4c0.4-0.2,0.9-0.3,1.1-0.4C15.8,8,15.8,8,15.8,7.8c-0.1-0.2-0.2-0.2-0.7,0
				c-0.2,0.1-0.7,0.4-1,0.6C13.7,8.6,13.4,8.9,13.4,8.9L13.4,8.9C13.3,9,13.3,9,13.3,9c0,0,0,0,0,0C13.3,9,13.3,9,13.4,8.9
				C13.4,9,13.4,8.9,13.4,8.9C13.4,8.9,13.4,8.9,13.4,8.9z"/>
		</g>
		<g>
			
				<linearGradient id="SVGID_2_" gradientUnits="userSpaceOnUse" x1="-1.8759" y1="1.9418" x2="1.6461" y2="1.9418" gradientTransform="matrix(0.9548 -0.2971 0.2971 0.9548 17.8192 4.8805)">
				<stop  offset="0" style="stop-color:#FFFF47"/>
				<stop  offset="1" style="stop-color:#FFAA31"/>
			</linearGradient>
			<path style="fill:url(#SVGID_2_);" d="M16.6,7.4c0,0,0.5-0.2,1.1-0.3c0.6-0.1,1.3-0.2,1.6-0.3C19.9,6.6,20,6.5,20,6.3
				c0-0.2-0.1-0.3-0.8-0.1c-0.3,0.1-1,0.3-1.6,0.6C17.1,7,16.6,7.4,16.6,7.4z"/>
		</g>
		<g>
			
				<linearGradient id="SVGID_3_" gradientUnits="userSpaceOnUse" x1="-4.5932" y1="-1.4907" x2="-1.6461" y2="-1.4907" gradientTransform="matrix(0.9548 -0.2971 0.2971 0.9548 17.8192 4.8805)">
				<stop  offset="0" style="stop-color:#FFFF47"/>
				<stop  offset="1" style="stop-color:#FFAA31"/>
			</linearGradient>
			<path style="fill:url(#SVGID_3_);" d="M13.5,6.4c0,0,1.3-2.3,1.7-3c0.3-0.7,0.3-0.8,0.1-0.9c-0.2-0.1-0.3,0-0.6,0.7
				C14.3,3.9,13.5,6.4,13.5,6.4z"/>
		</g>
		<g>
			
				<linearGradient id="SVGID_4_" gradientUnits="userSpaceOnUse" x1="-13.5159" y1="-0.2933" x2="-7.9213" y2="-0.2933" gradientTransform="matrix(0.9548 -0.2971 0.2971 0.9548 17.8192 4.8805)">
				<stop  offset="0" style="stop-color:#FFFF47"/>
				<stop  offset="1" style="stop-color:#FFAA31"/>
			</linearGradient>
			<path style="fill:url(#SVGID_4_);" d="M10.7,8.7c0,0,0,0-0.1-0.1c-0.1-0.1-0.2-0.2-0.4-0.3C9.9,8,9.4,7.7,8.9,7.4
				C7.8,7,6.4,6.8,5.8,6.8C4.5,6.7,4.3,6.8,4.3,7c0,0.2,0.2,0.3,1.4,0.3c0.6,0,1.9,0.1,3,0.4c0.6,0.2,1.1,0.4,1.4,0.6
				c0.2,0.1,0.3,0.2,0.4,0.3C10.7,8.6,10.7,8.7,10.7,8.7z"/>
		</g>
		<g>
			
				<linearGradient id="SVGID_5_" gradientUnits="userSpaceOnUse" x1="-14.5288" y1="4.1834" x2="-10.3071" y2="4.1834" gradientTransform="matrix(0.9548 -0.2971 0.2971 0.9548 17.8192 4.8805)">
				<stop  offset="0" style="stop-color:#FFFF47"/>
				<stop  offset="1" style="stop-color:#FFAA31"/>
			</linearGradient>
			<path style="fill:url(#SVGID_5_);" d="M9,11.2c0,0,0,0-0.1,0c-0.1,0-0.2,0.1-0.3,0.1c-0.2,0.1-0.6,0.3-0.9,0.5
				c-0.7,0.4-1.4,1-1.7,1.2c-0.6,0.5-0.7,0.6-0.6,0.8C5.5,14,5.7,14,6.3,13.5c0.3-0.2,1-0.9,1.5-1.4C8.4,11.5,9,11.2,9,11.2z"/>
		</g>
		<g>
			
				<linearGradient id="SVGID_6_" gradientUnits="userSpaceOnUse" x1="-9.1645" y1="4.4633" x2="-7.8823" y2="4.4633" gradientTransform="matrix(0.9548 -0.2971 0.2971 0.9548 17.8192 4.8805)">
				<stop  offset="0" style="stop-color:#FFFF47"/>
				<stop  offset="1" style="stop-color:#FFAA31"/>
			</linearGradient>
			<path style="fill:url(#SVGID_6_);" d="M11.4,10.9c0,0-0.2,0.2-0.4,0.4c-0.2,0.2-0.4,0.4-0.5,0.6c-0.1,0.3-0.1,0.3,0.1,0.4
				c0.2,0.1,0.3,0.1,0.4-0.2c0.1-0.1,0.2-0.4,0.3-0.7C11.4,11.2,11.4,10.9,11.4,10.9z"/>
		</g>
		<g>
			
				<linearGradient id="SVGID_7_" gradientUnits="userSpaceOnUse" x1="-7.4337" y1="5.0448" x2="-6.82" y2="5.0448" gradientTransform="matrix(0.9548 -0.2971 0.2971 0.9548 17.8192 4.8805)">
				<stop  offset="0" style="stop-color:#FFFF47"/>
				<stop  offset="1" style="stop-color:#FFAA31"/>
			</linearGradient>
			<path style="fill:url(#SVGID_7_);" d="M12.4,11.1c0,0,0,0.2,0,0.5c0,0.3-0.1,0.5-0.1,0.6c0,0.3,0.1,0.3,0.3,0.3
				c0.2,0,0.3,0,0.3-0.3c0-0.1-0.1-0.5-0.2-0.7C12.6,11.2,12.4,11.1,12.4,11.1z"/>
		</g>
		<g>
			
				<linearGradient id="SVGID_8_" gradientUnits="userSpaceOnUse" x1="-6.0664" y1="5.8341" x2="-4.4803" y2="5.8341" gradientTransform="matrix(0.9548 -0.2971 0.2971 0.9548 17.8192 4.8805)">
				<stop  offset="0" style="stop-color:#FFFF47"/>
				<stop  offset="1" style="stop-color:#FFAA31"/>
			</linearGradient>
			<path style="fill:url(#SVGID_8_);" d="M13.3,10.8C13.3,10.8,13.3,10.8,13.3,10.8c0.1,0.1,0.2,0.1,0.3,0.2
				c0.2,0.1,0.3,0.3,0.5,0.5c0.3,0.5,0.7,1,0.8,1.3c0.3,0.5,0.5,0.6,0.6,0.4c0.2-0.1,0.2-0.2-0.2-0.7c-0.2-0.3-0.6-0.8-1.1-1.2
				c-0.2-0.2-0.5-0.4-0.7-0.4C13.5,10.9,13.5,10.8,13.3,10.8C13.3,10.8,13.3,10.8,13.3,10.8z"/>
		</g>
		<g>
			
				<linearGradient id="SVGID_9_" gradientUnits="userSpaceOnUse" x1="-7.5596" y1="3.6576" x2="-7.0025" y2="3.6576" gradientTransform="matrix(0.9548 -0.2971 0.2971 0.9548 17.8192 4.8805)">
				<stop  offset="0" style="stop-color:#FFFF47"/>
				<stop  offset="1" style="stop-color:#FFAA31"/>
			</linearGradient>
			<path style="fill:url(#SVGID_9_);" d="M12,10.1c0,0-0.3,0.5-0.3,0.7c0,0.2,0.1,0.2,0.3,0.2c0.2,0,0.3,0,0.3-0.2
				C12.3,10.6,12,10.1,12,10.1z"/>
		</g>
		<g>
			
				<linearGradient id="SVGID_10_" gradientUnits="userSpaceOnUse" x1="-6.7727" y1="2.8508" x2="-5.8731" y2="2.8508" gradientTransform="matrix(0.9548 -0.2971 0.2971 0.9548 17.8192 4.8805)">
				<stop  offset="0" style="stop-color:#FFFF47"/>
				<stop  offset="1" style="stop-color:#FFAA31"/>
			</linearGradient>
			<path style="fill:url(#SVGID_10_);" d="M12.2,9.6c0,0,0.2,0,0.3,0c0.2,0,0.3,0.1,0.4,0c0.1,0,0.2-0.1,0.1-0.3
				c0-0.2-0.1-0.3-0.2-0.2c-0.1,0-0.3,0.1-0.4,0.2C12.3,9.5,12.2,9.6,12.2,9.6z"/>
		</g>
	</g>
	<g>
		<g>
			
				<linearGradient id="SVGID_11_" gradientUnits="userSpaceOnUse" x1="-3.4637" y1="1.0427" x2="0.8748" y2="1.0427" gradientTransform="matrix(0.9548 -0.2971 0.2971 0.9548 17.8192 4.8805)">
				<stop  offset="0" style="stop-color:#FFFF47"/>
				<stop  offset="1" style="stop-color:#FFAA31"/>
			</linearGradient>
			<path style="fill:url(#SVGID_11_);" d="M15,7.5c0,0,0.5-0.5,1.2-0.8c0.7-0.4,1.5-0.6,1.9-0.7c0.8-0.3,0.9-0.4,0.8-0.6
				c-0.1-0.2-0.2-0.2-1,0.1c-0.4,0.1-1.2,0.5-1.9,1c-0.3,0.2-0.6,0.5-0.8,0.7C15.2,7.2,15.1,7.3,15,7.5C15,7.4,15,7.5,15,7.5z"/>
		</g>
		<g>
			
				<linearGradient id="SVGID_12_" gradientUnits="userSpaceOnUse" x1="-3.0957" y1="3.7764" x2="2.31" y2="3.7764" gradientTransform="matrix(0.9548 -0.2971 0.2971 0.9548 17.8192 4.8805)">
				<stop  offset="0" style="stop-color:#FFFF47"/>
				<stop  offset="1" style="stop-color:#FFAA31"/>
			</linearGradient>
			<path style="fill:url(#SVGID_12_);" d="M15.8,8.7c0,0,0.2,0,0.5-0.1c0.3-0.1,0.8-0.1,1.3-0.1c1-0.1,2.1,0,2.6,0.1
				c1,0.1,1.2,0.1,1.2-0.1c0-0.2-0.1-0.3-1.1-0.4c-0.5-0.1-1.7,0-2.6,0.2c-0.5,0.1-0.9,0.2-1.3,0.3C16,8.6,15.8,8.7,15.8,8.7z"/>
		</g>
		<g>
			
				<linearGradient id="SVGID_13_" gradientUnits="userSpaceOnUse" x1="-7.123" y1="-3.5483" x2="-6.4185" y2="-3.5483" gradientTransform="matrix(0.9548 -0.2971 0.2971 0.9548 17.8192 4.8805)">
				<stop  offset="0" style="stop-color:#FFFF47"/>
				<stop  offset="1" style="stop-color:#FFAA31"/>
			</linearGradient>
			<path style="fill:url(#SVGID_13_);" d="M11.2,6.2c0,0-0.2-0.8-0.4-1.8c-0.2-1-0.6-2.1-0.8-2.5c-0.4-0.9-0.6-1-0.8-0.9
				C9.1,1,9.1,1.1,9.6,2c0.2,0.5,0.7,1.5,1,2.4C10.9,5.4,11.2,6.2,11.2,6.2z"/>
		</g>
		<g>
			
				<linearGradient id="SVGID_14_" gradientUnits="userSpaceOnUse" x1="-10.9936" y1="-2.3798" x2="-8.0586" y2="-2.3798" gradientTransform="matrix(0.9548 -0.2971 0.2971 0.9548 17.8192 4.8805)">
				<stop  offset="0" style="stop-color:#FFFF47"/>
				<stop  offset="1" style="stop-color:#FFAA31"/>
			</linearGradient>
			<path style="fill:url(#SVGID_14_);" d="M10,6.8c0,0-0.4-0.6-1-1.1C8.3,5.1,7.6,4.5,7.2,4.3C6.4,4,6.2,4,6.2,4.2
				c-0.1,0.2,0,0.3,0.8,0.6c0.4,0.2,1.2,0.6,1.8,1C9.4,6.3,10,6.8,10,6.8z"/>
		</g>
		<g>
			
				<linearGradient id="SVGID_15_" gradientUnits="userSpaceOnUse" x1="-14.9314" y1="0.4176" x2="-8.5243" y2="0.4176" gradientTransform="matrix(0.9548 -0.2971 0.2971 0.9548 17.8192 4.8805)">
				<stop  offset="0" style="stop-color:#FFFF47"/>
				<stop  offset="1" style="stop-color:#FFAA31"/>
			</linearGradient>
			<path style="fill:url(#SVGID_15_);" d="M10.2,8.9c0,0-0.1,0-0.2-0.1C9.9,8.8,9.7,8.7,9.5,8.6C9.2,8.4,8.6,8.2,8,8.1
				C7.4,8,6.7,7.9,6.2,8C5.6,8,5,8.1,4.7,8.2c-0.6,0.2-1,0.3-1.1,0.5C3.4,8.8,3.4,8.9,3.5,8.9C3.5,9,3.6,9.1,3.8,9
				C4,9,4.3,8.9,4.9,8.7c0.3-0.1,0.8-0.2,1.3-0.3c0.6-0.1,1.2-0.1,1.8,0c0.6,0.1,1.1,0.2,1.5,0.3C9.7,8.8,9.9,8.8,10,8.9
				C10.1,8.9,10.2,8.9,10.2,8.9z"/>
		</g>
		<g>
			
				<linearGradient id="SVGID_16_" gradientUnits="userSpaceOnUse" x1="-15.9803" y1="3.2004" x2="-10.2743" y2="3.2004" gradientTransform="matrix(0.9548 -0.2971 0.2971 0.9548 17.8192 4.8805)">
				<stop  offset="0" style="stop-color:#FFFF47"/>
				<stop  offset="1" style="stop-color:#FFAA31"/>
			</linearGradient>
			<path style="fill:url(#SVGID_16_);" d="M8.7,10.2c0,0-0.1,0-0.2,0c-0.1,0-0.2,0.1-0.4,0.1c-0.3,0.1-0.8,0.3-1.3,0.5
				c-1,0.4-1.9,1.1-2.4,1.5c-0.8,0.7-0.9,0.9-0.7,1.1c0.1,0.2,0.3,0.1,1.1-0.6c0.4-0.4,1.3-1.1,2.1-1.7c0.4-0.3,0.9-0.5,1.2-0.7
				c0.2-0.1,0.3-0.1,0.4-0.2C8.7,10.2,8.7,10.2,8.7,10.2z"/>
		</g>
		<g>
			
				<linearGradient id="SVGID_17_" gradientUnits="userSpaceOnUse" x1="-13.0889" y1="7.5296" x2="-9.8212" y2="7.5296" gradientTransform="matrix(0.9548 -0.2971 0.2971 0.9548 17.8192 4.8805)">
				<stop  offset="0" style="stop-color:#FFFF47"/>
				<stop  offset="1" style="stop-color:#FFAA31"/>
			</linearGradient>
			<path style="fill:url(#SVGID_17_);" d="M10.2,13.4c0,0-0.3,0.6-0.8,1.3c-0.4,0.7-0.9,1.4-1.1,1.8c-0.4,0.7-0.4,0.9-0.2,1
				c0.2,0.1,0.3,0,0.7-0.7c0.2-0.4,0.6-1.2,0.9-1.9C10,14.1,10.2,13.4,10.2,13.4z"/>
		</g>
		<g>
			
				<linearGradient id="SVGID_18_" gradientUnits="userSpaceOnUse" x1="-10.2777" y1="8.7203" x2="-8.0435" y2="8.7203" gradientTransform="matrix(0.9548 -0.2971 0.2971 0.9548 17.8192 4.8805)">
				<stop  offset="0" style="stop-color:#FFFF47"/>
				<stop  offset="1" style="stop-color:#FFAA31"/>
			</linearGradient>
			<path style="fill:url(#SVGID_18_);" d="M12.1,13.6c0,0-0.1,0.7-0.2,1.5c-0.1,0.8-0.4,1.7-0.5,2.1c-0.2,0.8-0.3,0.9-0.1,1
				c0.2,0.1,0.3,0,0.6-0.9c0.1-0.4,0.3-1.4,0.2-2.2C12.1,14.3,12.1,13.6,12.1,13.6z"/>
		</g>
		<g>
			
				<linearGradient id="SVGID_19_" gradientUnits="userSpaceOnUse" x1="-6.1004" y1="7.762" x2="-5.5403" y2="7.762" gradientTransform="matrix(0.9548 -0.2971 0.2971 0.9548 17.8192 4.8805)">
				<stop  offset="0" style="stop-color:#FFFF47"/>
				<stop  offset="1" style="stop-color:#FFAA31"/>
			</linearGradient>
			<path style="fill:url(#SVGID_19_);" d="M14.3,13.1c0,0,0.1,1.2,0.2,1.5c0.1,0.3,0.2,0.4,0.4,0.3c0.2,0,0.3-0.1,0.2-0.5
				C14.9,14.1,14.3,13,14.3,13.1z"/>
		</g>
		<g>
			
				<linearGradient id="SVGID_20_" gradientUnits="userSpaceOnUse" x1="-4.7806" y1="6.0822" x2="-1.8127" y2="6.0822" gradientTransform="matrix(0.9548 -0.2971 0.2971 0.9548 17.8192 4.8805)">
				<stop  offset="0" style="stop-color:#FFFF47"/>
				<stop  offset="1" style="stop-color:#FFAA31"/>
			</linearGradient>
			<path style="fill:url(#SVGID_20_);" d="M14.6,10.6c0,0,0.2,0.1,0.4,0.2c0.2,0.1,0.5,0.3,0.9,0.5c0.6,0.4,1.3,0.9,1.5,1.2
				c0.6,0.5,0.7,0.5,0.9,0.3c0.1-0.2,0.1-0.3-0.5-0.8c-0.3-0.2-1.1-0.7-1.8-1c-0.4-0.1-0.7-0.2-1-0.3C14.8,10.6,14.6,10.6,14.6,10.6
				z"/>
		</g>
		<g>
			
				<linearGradient id="SVGID_21_" gradientUnits="userSpaceOnUse" x1="-5.0096" y1="5.9378" x2="0.2469" y2="5.9378" gradientTransform="matrix(0.9548 -0.2971 0.2971 0.9548 17.8192 4.8805)">
				<stop  offset="0" style="stop-color:#FFFF47"/>
				<stop  offset="1" style="stop-color:#FFAA31"/>
			</linearGradient>
			<path style="fill:url(#SVGID_21_);" d="M14.2,10.2c0,0,0.1,0,0.2,0c0.1,0,0.1,0,0.2,0c0.1,0,0.2,0,0.3,0c0.4,0,0.9,0.2,1.4,0.4
				c1.1,0.4,2.2,1.1,2.7,1.3c1,0.6,1.2,0.6,1.3,0.4c0.1-0.2,0-0.3-1.1-0.9c-0.5-0.3-1.7-0.8-2.9-1.1c-0.6-0.1-1.1-0.2-1.5-0.2
				c-0.1,0-0.2,0-0.3,0c-0.1,0-0.1,0-0.2,0C14.3,10.2,14.2,10.2,14.2,10.2z"/>
		</g>
		<g>
			
				<linearGradient id="SVGID_22_" gradientUnits="userSpaceOnUse" x1="-6.4161" y1="1.6235" x2="-5.339" y2="1.6235" gradientTransform="matrix(0.9548 -0.2971 0.2971 0.9548 17.8192 4.8805)">
				<stop  offset="0" style="stop-color:#FFFF47"/>
				<stop  offset="1" style="stop-color:#FFAA31"/>
			</linearGradient>
			<path style="fill:url(#SVGID_22_);" d="M12.4,9c0,0,0.1-0.2,0.3-0.4C12.8,8.3,13,8,13,7.9c0.1-0.2,0.1-0.3-0.1-0.4
				c-0.2-0.1-0.3-0.1-0.4,0.2c-0.1,0.1-0.1,0.5-0.1,0.7C12.4,8.7,12.4,9,12.4,9z"/>
		</g>
		<g>
			
				<linearGradient id="SVGID_23_" gradientUnits="userSpaceOnUse" x1="-4.903" y1="-4.5838" x2="-4.4801" y2="-4.5838" gradientTransform="matrix(0.9548 -0.2971 0.2971 0.9548 17.8192 4.8805)">
				<stop  offset="0" style="stop-color:#FFFF47"/>
				<stop  offset="1" style="stop-color:#FFAA31"/>
			</linearGradient>
			<path style="fill:url(#SVGID_23_);" d="M12.1,3c0,0,0-0.1,0-0.2c0-0.1,0-0.3,0-0.5c0-0.4-0.1-0.8-0.1-1c-0.1-0.4-0.2-0.4-0.4-0.3
				c-0.1,0.1-0.2,0.1,0,0.5c0.1,0.2,0.2,0.5,0.3,0.9C12,2.5,12,2.6,12.1,2.7C12.1,2.9,12.1,3,12.1,3z"/>
		</g>
	</g>
	<g>
		<g>
			
				<linearGradient id="SVGID_24_" gradientUnits="userSpaceOnUse" x1="-5.4626" y1="0.1047" x2="1.0062" y2="0.1047" gradientTransform="matrix(0.9548 -0.2971 0.2971 0.9548 17.8192 4.8805)">
				<stop  offset="0" style="stop-color:#FFFF47"/>
				<stop  offset="1" style="stop-color:#FFAA31"/>
			</linearGradient>
			<path style="fill:url(#SVGID_24_);" d="M13.2,8.3c0,0,0.2-0.2,0.5-0.6c0.3-0.3,0.7-0.8,1.1-1.3c0.4-0.5,0.9-1,1.4-1.4
				c0.4-0.4,0.9-0.7,1.1-0.9c0.5-0.4,0.8-0.6,1-0.8c0.2-0.1,0.2-0.2,0.1-0.3c0-0.1-0.1-0.1-0.3,0c-0.2,0.1-0.5,0.3-1.1,0.7
				c-0.3,0.2-0.7,0.6-1.1,1c-0.4,0.4-0.9,1-1.3,1.5c-0.4,0.5-0.7,1-1,1.4C13.3,8,13.2,8.3,13.2,8.3z"/>
		</g>
		<g>
			
				<linearGradient id="SVGID_25_" gradientUnits="userSpaceOnUse" x1="-1.8508" y1="2.0266" x2="-1.8508" y2="2.0266" gradientTransform="matrix(0.9548 -0.2971 0.2971 0.9548 17.8192 4.8805)">
				<stop  offset="0" style="stop-color:#FFFF47"/>
				<stop  offset="1" style="stop-color:#FFAA31"/>
			</linearGradient>
			<path style="fill:url(#SVGID_25_);" d="M16.7,7.4"/>
		</g>
		<g>
			
				<linearGradient id="SVGID_26_" gradientUnits="userSpaceOnUse" x1="-1.876" y1="2.0092" x2="-1.876" y2="2.0092" gradientTransform="matrix(0.9548 -0.2971 0.2971 0.9548 17.8192 4.8805)">
				<stop  offset="0" style="stop-color:#FFFF47"/>
				<stop  offset="1" style="stop-color:#FFAA31"/>
			</linearGradient>
			<path style="fill:url(#SVGID_26_);" d="M16.6,7.4"/>
		</g>
		<g>
			
				<linearGradient id="SVGID_27_" gradientUnits="userSpaceOnUse" x1="-5.1754" y1="3.5133" x2="-3.1278" y2="3.5133" gradientTransform="matrix(0.9548 -0.2971 0.2971 0.9548 17.8192 4.8805)">
				<stop  offset="0" style="stop-color:#FFFF47"/>
				<stop  offset="1" style="stop-color:#FFAA31"/>
			</linearGradient>
			<path style="fill:url(#SVGID_27_);" d="M13.8,9.5c0,0,0.3,0,0.7,0.1c0.4,0,0.8,0.1,1,0c0.4,0,0.4-0.1,0.4-0.2
				c0-0.2-0.1-0.2-0.4-0.2c-0.2,0-0.6,0.1-1,0.2C14.1,9.4,13.8,9.5,13.8,9.5z"/>
		</g>
		<g>
			
				<linearGradient id="SVGID_28_" gradientUnits="userSpaceOnUse" x1="-5.4313" y1="-2.052" x2="-2.8779" y2="-2.052" gradientTransform="matrix(0.9548 -0.2971 0.2971 0.9548 17.8192 4.8805)">
				<stop  offset="0" style="stop-color:#FFFF47"/>
				<stop  offset="1" style="stop-color:#FFAA31"/>
			</linearGradient>
			<path style="fill:url(#SVGID_28_);" d="M12.8,7.1c0,0,0.2-0.9,0.4-1.9c0.2-1,0.4-2.1,0.5-2.7c0.1-1.1,0-1.2-0.1-1.2
				c-0.2,0-0.2,0.1-0.3,1.2c0,0.5-0.1,1.7-0.2,2.7C12.9,6.2,12.8,7.1,12.8,7.1z"/>
		</g>
		<g>
			
				<linearGradient id="SVGID_29_" gradientUnits="userSpaceOnUse" x1="-6.0891" y1="-1.1677" x2="-5.236" y2="-1.1677" gradientTransform="matrix(0.9548 -0.2971 0.2971 0.9548 17.8192 4.8805)">
				<stop  offset="0" style="stop-color:#FFFF47"/>
				<stop  offset="1" style="stop-color:#FFAA31"/>
			</linearGradient>
			<path style="fill:url(#SVGID_29_);" d="M12.1,7c0,0,0.1-0.5,0.1-1c0-0.6,0-1.2,0-1.5c-0.1-0.6-0.2-0.7-0.4-0.6
				c-0.2,0-0.2,0.1-0.1,0.7c0,0.3,0.2,0.9,0.2,1.4C12.1,6.6,12.1,7,12.1,7z"/>
		</g>
		<g>
			
				<linearGradient id="SVGID_30_" gradientUnits="userSpaceOnUse" x1="-8.6306" y1="-2.2539" x2="-7.4318" y2="-2.2539" gradientTransform="matrix(0.9548 -0.2971 0.2971 0.9548 17.8192 4.8805)">
				<stop  offset="0" style="stop-color:#FFFF47"/>
				<stop  offset="1" style="stop-color:#FFAA31"/>
			</linearGradient>
			<path style="fill:url(#SVGID_30_);" d="M10.6,6.6c0,0-0.1-0.5-0.4-1.1C9.8,4.9,9.4,4.3,9.2,4C8.7,3.5,8.6,3.5,8.5,3.6
				C8.4,3.8,8.4,3.9,8.9,4.3c0.2,0.2,0.7,0.7,1.1,1.2C10.3,6.1,10.6,6.6,10.6,6.6z"/>
		</g>
		<g>
			
				<linearGradient id="SVGID_31_" gradientUnits="userSpaceOnUse" x1="-15.3144" y1="1.942" x2="-8.6796" y2="1.942" gradientTransform="matrix(0.9548 -0.2971 0.2971 0.9548 17.8192 4.8805)">
				<stop  offset="0" style="stop-color:#FFFF47"/>
				<stop  offset="1" style="stop-color:#FFAA31"/>
			</linearGradient>
			<path style="fill:url(#SVGID_31_);" d="M10.2,9.6c0,0-0.1,0-0.2,0c-0.1,0-0.1,0-0.2-0.1c-0.1,0-0.2,0-0.3,0c-0.4-0.1-1-0.1-1.6,0
				c-1.2,0.2-2.5,0.8-3,1.1c-0.5,0.3-0.8,0.6-1,0.7c-0.1,0.2-0.1,0.2-0.1,0.3c0.1,0.1,0.1,0.1,0.3,0c0.2-0.1,0.5-0.3,1-0.6
				c0.5-0.3,1.7-1,2.8-1.3c0.6-0.2,1.1-0.2,1.5-0.2c0.1,0,0.2,0,0.3,0c0.1,0,0.2,0,0.2,0C10.1,9.6,10.2,9.6,10.2,9.6z"/>
		</g>
		<g>
			
				<linearGradient id="SVGID_32_" gradientUnits="userSpaceOnUse" x1="-10.331" y1="2.6182" x2="-8.6015" y2="2.6182" gradientTransform="matrix(0.9548 -0.2971 0.2971 0.9548 17.8192 4.8805)">
				<stop  offset="0" style="stop-color:#FFFF47"/>
				<stop  offset="1" style="stop-color:#FFAA31"/>
			</linearGradient>
			<path style="fill:url(#SVGID_32_);" d="M10.4,10c0,0-0.3-0.1-0.6,0c-0.3,0-0.7,0.1-0.8,0.1c-0.3,0.1-0.3,0.2-0.3,0.3
				c0.1,0.2,0.1,0.2,0.4,0.1c0.1-0.1,0.4-0.2,0.7-0.3C10.1,10.1,10.4,10,10.4,10z"/>
		</g>
		<g>
			
				<linearGradient id="SVGID_33_" gradientUnits="userSpaceOnUse" x1="-10.3833" y1="3.6333" x2="-8.3299" y2="3.6333" gradientTransform="matrix(0.9548 -0.2971 0.2971 0.9548 17.8192 4.8805)">
				<stop  offset="0" style="stop-color:#FFFF47"/>
				<stop  offset="1" style="stop-color:#FFAA31"/>
			</linearGradient>
			<path style="fill:url(#SVGID_33_);" d="M10.8,10.4C10.8,10.4,10.8,10.5,10.8,10.4c-0.1,0-0.1,0-0.2,0c-0.1,0-0.3,0.1-0.5,0.2
				c-0.4,0.2-0.7,0.4-0.9,0.6C9,11.5,9,11.6,9.1,11.7c0.1,0.1,0.2,0.1,0.5-0.1c0.1-0.1,0.4-0.5,0.7-0.7c0.1-0.1,0.3-0.2,0.4-0.3
				C10.7,10.5,10.7,10.5,10.8,10.4C10.8,10.5,10.8,10.4,10.8,10.4z"/>
		</g>
		<g>
			
				<linearGradient id="SVGID_34_" gradientUnits="userSpaceOnUse" x1="-14.8618" y1="6.202" x2="-9.8378" y2="6.202" gradientTransform="matrix(0.9548 -0.2971 0.2971 0.9548 17.8192 4.8805)">
				<stop  offset="0" style="stop-color:#FFFF47"/>
				<stop  offset="1" style="stop-color:#FFAA31"/>
			</linearGradient>
			<path style="fill:url(#SVGID_34_);" d="M9.7,11.9c0,0-0.2,0.2-0.5,0.4c-0.3,0.3-0.6,0.6-1,1.1c-0.7,0.8-1.5,1.9-1.7,2.4
				c-0.6,1-0.6,1.2-0.4,1.3C6.2,17.1,6.3,17,6.9,16c0.3-0.5,0.9-1.6,1.5-2.5C8.7,13,9,12.6,9.3,12.3C9.5,12,9.7,11.9,9.7,11.9z"/>
		</g>
		<g>
			
				<linearGradient id="SVGID_35_" gradientUnits="userSpaceOnUse" x1="-9.9903" y1="6.779" x2="-8.3254" y2="6.779" gradientTransform="matrix(0.9548 -0.2971 0.2971 0.9548 17.8192 4.8805)">
				<stop  offset="0" style="stop-color:#FFFF47"/>
				<stop  offset="1" style="stop-color:#FFAA31"/>
			</linearGradient>
			<path style="fill:url(#SVGID_35_);" d="M11.5,12.5c0,0-0.1,0.5-0.3,1c-0.2,0.5-0.4,1.1-0.4,1.4c-0.1,0.6-0.1,0.6,0,0.7
				c0.2,0,0.2,0,0.4-0.6c0.1-0.3,0.2-0.9,0.2-1.5C11.4,13,11.5,12.5,11.5,12.5z"/>
		</g>
		<g>
			
				<linearGradient id="SVGID_36_" gradientUnits="userSpaceOnUse" x1="-7.042" y1="7.7373" x2="-4.4546" y2="7.7373" gradientTransform="matrix(0.8984 -0.2886 0.2561 0.8523 16.2715 8.0552)">
				<stop  offset="0" style="stop-color:#FFFF47"/>
				<stop  offset="1" style="stop-color:#FFAA31"/>
			</linearGradient>
			<path style="fill:url(#SVGID_36_);" d="M13.5,13.4c0,0,0,0.2,0,0.6c0,0.4,0,0.8,0,1.3c0,0.5-0.1,1-0.2,1.5
				c-0.1,0.5-0.2,0.9-0.3,1.1c-0.2,0.5-0.3,0.8-0.3,0.9c-0.1,0.2,0,0.2,0,0.3c0.1,0,0.1,0,0.2-0.1c0.1-0.1,0.3-0.4,0.4-1
				c0.1-0.3,0.2-0.7,0.2-1.2c0.1-0.5,0.1-1,0-1.6c0-0.5-0.1-1-0.1-1.3C13.5,13.6,13.5,13.4,13.5,13.4z"/>
		</g>
		<g>
			
				<linearGradient id="SVGID_37_" gradientUnits="userSpaceOnUse" x1="-6.5539" y1="5.2429" x2="-6.0931" y2="5.2429" gradientTransform="matrix(0.9548 -0.2971 0.2971 0.9548 17.8192 4.8805)">
				<stop  offset="0" style="stop-color:#FFFF47"/>
				<stop  offset="1" style="stop-color:#FFAA31"/>
			</linearGradient>
			<path style="fill:url(#SVGID_37_);" d="M13.2,11.3c0,0,0,0.2,0,0.3c0,0.2,0,0.4,0,0.4c0,0.2,0.1,0.2,0.2,0.2c0.2,0,0.2,0,0.2-0.2
				c0-0.1-0.1-0.3-0.2-0.5C13.3,11.4,13.2,11.3,13.2,11.3z"/>
		</g>
		<g>
			
				<linearGradient id="SVGID_38_" gradientUnits="userSpaceOnUse" x1="-5.3164" y1="9.8855" x2="-4.4879" y2="9.8855" gradientTransform="matrix(0.9548 -0.2971 0.2971 0.9548 17.8192 4.8805)">
				<stop  offset="0" style="stop-color:#FFFF47"/>
				<stop  offset="1" style="stop-color:#FFAA31"/>
			</linearGradient>
			<path style="fill:url(#SVGID_38_);" d="M15.6,13.6c0,0,0.3,0.6,0.4,1.4c0.1,0.8,0.2,1.6,0.2,2c0,0.8,0,0.9,0.2,0.9
				c0.2,0,0.3-0.1,0.2-1c0-0.4-0.2-1.3-0.4-2.1C16,14.2,15.6,13.6,15.6,13.6z"/>
		</g>
		<g>
			
				<linearGradient id="SVGID_39_" gradientUnits="userSpaceOnUse" x1="-4.902" y1="8.0109" x2="-2.5254" y2="8.0109" gradientTransform="matrix(0.9548 -0.2971 0.2971 0.9548 17.8192 4.8805)">
				<stop  offset="0" style="stop-color:#FFFF47"/>
				<stop  offset="1" style="stop-color:#FFAA31"/>
			</linearGradient>
			<path style="fill:url(#SVGID_39_);" d="M14.5,10.8c0,0,0.1,0,0.1,0.1c0.1,0.1,0.2,0.2,0.4,0.3c0.3,0.3,0.7,0.7,1.1,1.2
				c0.8,1,1.4,2.2,1.7,2.8c0.3,0.6,0.4,0.9,0.5,1.1c0.1,0.2,0.2,0.2,0.3,0.2c0.1,0,0.1-0.1,0.1-0.3c0-0.2-0.2-0.6-0.4-1.2
				c-0.3-0.6-1.1-1.8-1.9-2.7c-0.4-0.5-0.9-0.8-1.2-1.1c-0.2-0.1-0.3-0.2-0.4-0.3C14.6,10.8,14.5,10.8,14.5,10.8z"/>
		</g>
		<g>
			
				<linearGradient id="SVGID_40_" gradientUnits="userSpaceOnUse" x1="-2.0937" y1="5.5339" x2="0.9267" y2="5.5339" gradientTransform="matrix(0.9548 -0.2971 0.2971 0.9548 17.8192 4.8805)">
				<stop  offset="0" style="stop-color:#FFFF47"/>
				<stop  offset="1" style="stop-color:#FFAA31"/>
			</linearGradient>
			<path style="fill:url(#SVGID_40_);" d="M17.2,9.8c0-0.1,2,0.7,2.6,0.9c0.6,0.2,0.7,0.2,0.8,0c0.1-0.2,0-0.3-0.6-0.5
				C19.3,10.1,17.2,9.7,17.2,9.8z"/>
		</g>
		<g>
			
				<linearGradient id="SVGID_41_" gradientUnits="userSpaceOnUse" x1="-6.9169" y1="0.6564" x2="-6.4649" y2="0.6564" gradientTransform="matrix(0.9548 -0.2971 0.2971 0.9548 17.8192 4.8805)">
				<stop  offset="0" style="stop-color:#FFFF47"/>
				<stop  offset="1" style="stop-color:#FFAA31"/>
			</linearGradient>
			<path style="fill:url(#SVGID_41_);" d="M11.8,8.7c0,0,0-0.4,0-0.8c0-0.4-0.1-0.9-0.2-1.1c-0.1-0.4-0.2-0.5-0.4-0.4
				c-0.2,0.1-0.2,0.1,0,0.6c0.1,0.2,0.3,0.7,0.4,1.1C11.8,8.3,11.8,8.7,11.8,8.7z"/>
		</g>
		<g>
			
				<linearGradient id="SVGID_42_" gradientUnits="userSpaceOnUse" x1="-6.3483" y1="3.6456" x2="-5.7084" y2="3.6456" gradientTransform="matrix(0.9548 -0.2971 0.2971 0.9548 17.8192 4.8805)">
				<stop  offset="0" style="stop-color:#FFFF47"/>
				<stop  offset="1" style="stop-color:#FFAA31"/>
			</linearGradient>
			<path style="fill:url(#SVGID_42_);" d="M12.8,10c0,0,0.1,0.1,0.2,0.2c0.1,0.1,0.2,0.2,0.2,0.2c0.1,0,0.1,0,0.2-0.1
				c0.1-0.1,0.1-0.2,0-0.3c-0.1,0-0.2,0-0.4,0C12.9,10,12.8,10,12.8,10z"/>
		</g>
	</g>
</g>
<g>
	<g>
		<g>
			
				<linearGradient id="SVGID_43_" gradientUnits="userSpaceOnUse" x1="14.3225" y1="-237.5569" x2="14.3225" y2="-235.0229" gradientTransform="matrix(0.9652 -0.2615 -0.2615 -0.9652 97.9435 -215.0845)">
				<stop  offset="0.2397" style="stop-color:#F89C1C"/>
				<stop  offset="0.872" style="stop-color:#F3D40E"/>
			</linearGradient>
			<path style="fill:url(#SVGID_43_);" d="M174.4,9.2c0.1,0.4,0.1,0.6-0.1,0.7c-0.2,0.2-0.5,0.1-0.5,0.1s-0.1,0.1-0.3,0.2
				c-0.1,0-0.2,0-0.4-0.1c-0.1-0.1-0.2-0.1-0.2-0.3c-0.3-0.7,0.1-2.2,0.1-2.2l0,0h0.1l0.1-0.1h0.1l0,0c0.1,0.1,0.3,0.2,0.4,0.3
				C174.1,8.4,174.3,8.8,174.4,9.2z"/>
			
				<linearGradient id="SVGID_44_" gradientUnits="userSpaceOnUse" x1="13.9734" y1="-235.3108" x2="14.7273" y2="-235.3108" gradientTransform="matrix(0.9652 -0.2615 -0.2615 -0.9652 97.9435 -215.0845)">
				<stop  offset="0.2397" style="stop-color:#F89C1C"/>
				<stop  offset="0.872" style="stop-color:#F3D40E"/>
			</linearGradient>
			<path style="opacity:0.5;fill:url(#SVGID_44_);enable-background:new    ;" d="M173.8,8.6C173.8,8.7,173.8,8.7,173.8,8.6
				c0,0.1,0,0.1-0.1,0.1h-0.1c-0.1-0.1-0.2-0.2-0.2-0.4c0,0.1,0,0.4,0,0.6V9c0,0-0.1,0-0.1-0.1c-0.1-0.1-0.1-0.4-0.1-0.5
				c0,0.1,0,0.2,0,0.4v0.1c0,0-0.1,0-0.1-0.1c-0.1-0.1-0.1-0.2-0.1-0.3C173,8.2,173,7.9,173,7.6l0.2-0.1l0,0
				c0.2,0.2,0.4,0.4,0.4,0.7C173.7,8.4,173.8,8.5,173.8,8.6z"/>
			
				<linearGradient id="SVGID_45_" gradientUnits="userSpaceOnUse" x1="13.5204" y1="-236.8518" x2="15.1977" y2="-236.8518" gradientTransform="matrix(0.9652 -0.2615 -0.2615 -0.9652 97.9435 -215.0845)">
				<stop  offset="0.2397" style="stop-color:#F89C1C"/>
				<stop  offset="0.872" style="stop-color:#F3D40E"/>
			</linearGradient>
			<path style="opacity:0.5;fill:url(#SVGID_45_);enable-background:new    ;" d="M174.4,9.2c0.1,0.4,0.1,0.6-0.1,0.7
				c-0.2,0.2-0.5,0.1-0.5,0.1s-0.2,0.4-0.7,0.1c-0.1-0.1-0.2-0.1-0.2-0.3c0.1,0.1,0.1,0.1,0.2,0.1c0.1,0.1,0.3,0.1,0.4,0.1
				c0.1,0,0.3-0.1,0.3-0.3c0.1,0.1,0.1,0.1,0.3,0.1c0.1,0,0.2-0.1,0.3-0.1c0.1-0.1,0.1-0.2,0.1-0.3C174.4,9.4,174.4,9.3,174.4,9.2z"
				/>
			
				<linearGradient id="SVGID_46_" gradientUnits="userSpaceOnUse" x1="14.3383" y1="-235.9951" x2="14.3383" y2="-236.7758" gradientTransform="matrix(0.9652 -0.2615 -0.2615 -0.9652 97.9435 -215.0845)">
				<stop  offset="0" style="stop-color:#F89C1C;stop-opacity:0"/>
				<stop  offset="0.5249" style="stop-color:#F3D40E;stop-opacity:0.5"/>
				<stop  offset="1" style="stop-color:#F89C1C;stop-opacity:0"/>
			</linearGradient>
			<path style="fill:url(#SVGID_46_);" d="M174,8.6c0.1,0.1,0.2,0.4,0.3,0.6c0,0.1,0.1,0.2,0,0.3c-0.1,0.1-0.1,0.2-0.3,0.2
				c-0.1,0-0.3,0-0.4-0.1c-0.1,0.1-0.1,0.2-0.3,0.2c-0.1,0-0.2,0-0.4-0.1c-0.1-0.1-0.1-0.1-0.1-0.2c-0.1-0.2-0.1-0.4-0.1-0.6
				c0.1,0,0.2,0.1,0.3,0.1c0.1,0.1,0.2,0.1,0.3,0.1c0.1,0,0.1-0.1,0.2-0.1c0.1-0.1,0.1-0.1,0.1-0.2C173.9,8.7,174,8.6,174,8.6z"/>
			
				<linearGradient id="SVGID_47_" gradientUnits="userSpaceOnUse" x1="14.0704" y1="-236.1615" x2="15.198" y2="-236.1615" gradientTransform="matrix(0.9652 -0.2615 -0.2615 -0.9652 97.9435 -215.0845)">
				<stop  offset="0" style="stop-color:#F89C1C;stop-opacity:0"/>
				<stop  offset="0.5249" style="stop-color:#F3D40E;stop-opacity:0.5"/>
				<stop  offset="1" style="stop-color:#F89C1C;stop-opacity:0"/>
			</linearGradient>
			<path style="fill:url(#SVGID_47_);" d="M174.4,9.2c0.1,0.4,0.1,0.6-0.1,0.7c-0.2,0.2-0.5,0.1-0.5,0.1s-0.1,0.1-0.3,0.2
				c0.2-0.4,0.3-0.8,0.3-1.2s-0.1-0.7-0.2-1C174.1,8.4,174.3,8.8,174.4,9.2z"/>
			
				<linearGradient id="SVGID_48_" gradientUnits="userSpaceOnUse" x1="14.0502" y1="-235.1112" x2="14.6359" y2="-235.1112" gradientTransform="matrix(0.9652 -0.2615 -0.2615 -0.9652 97.9435 -215.0845)">
				<stop  offset="0.2397" style="stop-color:#F89C1C"/>
				<stop  offset="0.872" style="stop-color:#F3D40E"/>
			</linearGradient>
			<path style="opacity:0.5;fill:url(#SVGID_48_);enable-background:new    ;" d="M173.6,8.4C173.6,8.4,173.6,8.4,173.6,8.4
				l-0.1,0.1c-0.1-0.1-0.1-0.1-0.1-0.2c0,0.1,0,0.2,0,0.3c0,0,0,0,0,0.1l0,0c0,0,0,0-0.1,0c0,0,0,0,0-0.1c-0.1-0.1-0.1-0.2-0.1-0.3
				c0,0.1,0,0.1-0.1,0.2v0.1l0,0c-0.1-0.3-0.1-0.5,0-0.8l0.1-0.1c0.1,0.2,0.2,0.4,0.4,0.6C173.6,8.3,173.6,8.3,173.6,8.4z"/>
		</g>
		<g>
			
				<linearGradient id="SVGID_49_" gradientUnits="userSpaceOnUse" x1="-1129.5219" y1="-653.108" x2="-1129.5219" y2="-650.574" gradientTransform="matrix(0.2109 -0.9775 -0.9775 -0.2109 -224.1699 -1233.7267)">
				<stop  offset="0.2397" style="stop-color:#F89C1C"/>
				<stop  offset="0.872" style="stop-color:#F3D40E"/>
			</linearGradient>
			<path style="fill:url(#SVGID_49_);" d="M175.2,7.1c0.4,0.1,0.6,0.2,0.6,0.4c0.1,0.4-0.1,0.5-0.1,0.5s0.1,0.1,0.1,0.4
				c0,0.1-0.1,0.2-0.3,0.3c-0.1,0.1-0.2,0.1-0.4,0.1c-0.7,0-1.9-1-1.9-1l0,0V7.6V7.5V7.4l0,0c0.1-0.1,0.3-0.1,0.4-0.2
				C174.3,7,174.8,7,175.2,7.1z"/>
			
				<linearGradient id="SVGID_50_" gradientUnits="userSpaceOnUse" x1="-1129.9232" y1="-650.8932" x2="-1129.1693" y2="-650.8932" gradientTransform="matrix(0.2109 -0.9775 -0.9775 -0.2109 -224.1699 -1233.7267)">
				<stop  offset="0.2397" style="stop-color:#F89C1C"/>
				<stop  offset="0.872" style="stop-color:#F3D40E"/>
			</linearGradient>
			<path style="opacity:0.5;fill:url(#SVGID_50_);enable-background:new    ;" d="M174.3,7.4L174.3,7.4
				C174.4,7.5,174.4,7.5,174.3,7.4c0.1,0.1,0.1,0.1,0,0.1c-0.1,0.1-0.3,0.1-0.4,0.1c0.2,0.1,0.4,0.1,0.6,0.2c0,0,0.1,0,0.1,0.1h-0.1
				c-0.2,0-0.4-0.1-0.5-0.1c0,0.1,0.1,0.1,0.2,0.2c0,0,0.1,0,0.1,0.1c0,0,0,0-0.1,0.1c-0.1,0-0.2,0-0.3-0.1
				c-0.3-0.1-0.5-0.2-0.8-0.4l0.1-0.2l0,0c0.3-0.1,0.6-0.1,0.9-0.1C174.1,7.4,174.3,7.4,174.3,7.4z"/>
			
				<linearGradient id="SVGID_51_" gradientUnits="userSpaceOnUse" x1="-1130.3762" y1="-652.446" x2="-1128.699" y2="-652.446" gradientTransform="matrix(0.2109 -0.9775 -0.9775 -0.2109 -224.1699 -1233.7267)">
				<stop  offset="0.2397" style="stop-color:#F89C1C"/>
				<stop  offset="0.872" style="stop-color:#F3D40E"/>
			</linearGradient>
			<path style="opacity:0.5;fill:url(#SVGID_51_);enable-background:new    ;" d="M175.2,7.1c0.4,0.1,0.6,0.2,0.6,0.4
				c0.1,0.4-0.1,0.5-0.1,0.5s0.3,0.4-0.1,0.7c-0.1,0.1-0.2,0.1-0.4,0.1c0.1,0,0.1-0.1,0.2-0.1c0.1-0.1,0.2-0.1,0.3-0.3
				s0-0.3-0.1-0.4c0.1-0.1,0.1-0.1,0.2-0.2c0.1-0.1,0.1-0.2,0-0.3c-0.1-0.1-0.1-0.1-0.2-0.2C175.3,7.2,175.2,7.2,175.2,7.1z"/>
			
				<linearGradient id="SVGID_52_" gradientUnits="userSpaceOnUse" x1="-1129.5857" y1="-651.5462" x2="-1129.5857" y2="-652.327" gradientTransform="matrix(0.2109 -0.9775 -0.9775 -0.2109 -224.1699 -1233.7267)">
				<stop  offset="0" style="stop-color:#F89C1C;stop-opacity:0"/>
				<stop  offset="0.5249" style="stop-color:#F3D40E;stop-opacity:0.5"/>
				<stop  offset="1" style="stop-color:#F89C1C;stop-opacity:0"/>
			</linearGradient>
			<path style="fill:url(#SVGID_52_);" d="M174.4,7.2c0.2,0,0.4,0,0.7,0.1c0.1,0,0.2,0.1,0.3,0.1c0.1,0.1,0.1,0.2,0.1,0.4
				c0,0.1-0.1,0.2-0.2,0.3c0.1,0.1,0.1,0.2,0.1,0.4s-0.1,0.2-0.2,0.2c-0.1,0-0.1,0-0.3,0c-0.2,0-0.4-0.1-0.6-0.2
				c0.1-0.1,0.1-0.1,0.2-0.2c0.1-0.1,0.2-0.1,0.2-0.2c0-0.1,0-0.2,0-0.3c-0.1-0.1-0.1-0.1-0.1-0.2C174.5,7.3,174.4,7.2,174.4,7.2z"
				/>
			
				<linearGradient id="SVGID_53_" gradientUnits="userSpaceOnUse" x1="-1129.8263" y1="-651.7254" x2="-1128.6987" y2="-651.7254" gradientTransform="matrix(0.2109 -0.9775 -0.9775 -0.2109 -224.1699 -1233.7267)">
				<stop  offset="0" style="stop-color:#F89C1C;stop-opacity:0"/>
				<stop  offset="0.5249" style="stop-color:#F3D40E;stop-opacity:0.5"/>
				<stop  offset="1" style="stop-color:#F89C1C;stop-opacity:0"/>
			</linearGradient>
			<path style="fill:url(#SVGID_53_);" d="M175.2,7.1c0.4,0.1,0.6,0.2,0.6,0.4c0.1,0.4-0.1,0.5-0.1,0.5s0.1,0.1,0.1,0.4
				c-0.2-0.4-0.6-0.7-1-0.8c-0.3-0.1-0.7-0.2-1-0.3C174.3,7,174.8,7,175.2,7.1z"/>
			
				<linearGradient id="SVGID_54_" gradientUnits="userSpaceOnUse" x1="-1129.8469" y1="-650.6351" x2="-1129.2612" y2="-650.6351" gradientTransform="matrix(0.2109 -0.9775 -0.9775 -0.2109 -224.1699 -1233.7267)">
				<stop  offset="0.2397" style="stop-color:#F89C1C"/>
				<stop  offset="0.872" style="stop-color:#F3D40E"/>
			</linearGradient>
			<path style="opacity:0.5;fill:url(#SVGID_54_);enable-background:new    ;" d="M174,7.4L174,7.4c0.1,0.1,0,0.1,0,0.1
				c-0.1,0-0.1,0.1-0.3,0.1c0.1,0.1,0.2,0.1,0.3,0.1c0,0,0,0,0.1,0c0,0,0,0,0,0.1l0,0c0,0,0,0-0.1,0c-0.1,0-0.2,0-0.3-0.1
				c0.1,0.1,0.1,0.1,0.2,0.1c0,0,0,0,0,0.1l0,0c-0.3-0.1-0.5-0.2-0.7-0.4V7.5C173.4,7.5,173.7,7.4,174,7.4L174,7.4z"/>
		</g>
		<g>
			
				<linearGradient id="SVGID_55_" gradientUnits="userSpaceOnUse" x1="-2066.8367" y1="422.5467" x2="-2066.8367" y2="425.0806" gradientTransform="matrix(-0.8909 -0.4542 -0.4542 0.8909 -1475.0391 -1310.3224)">
				<stop  offset="0.2397" style="stop-color:#F89C1C"/>
				<stop  offset="0.872" style="stop-color:#F3D40E"/>
			</linearGradient>
			<path style="fill:url(#SVGID_55_);" d="M173.2,5.4c0.1-0.3,0.4-0.4,0.5-0.4c0.4,0,0.4,0.3,0.4,0.3s0.2-0.1,0.4,0
				c0.1,0.1,0.2,0.1,0.2,0.4c0.1,0.1,0,0.2,0,0.4c-0.2,0.7-1.5,1.6-1.5,1.6l0,0h-0.1L173,7.5h-0.1l0,0c-0.1-0.1-0.1-0.4-0.1-0.5
				C172.9,6.3,173,5.8,173.2,5.4z"/>
			
				<linearGradient id="SVGID_56_" gradientUnits="userSpaceOnUse" x1="-2067.2212" y1="424.8877" x2="-2066.4673" y2="424.8877" gradientTransform="matrix(-0.8909 -0.4542 -0.4542 0.8909 -1475.0391 -1310.3224)">
				<stop  offset="0.2397" style="stop-color:#F89C1C"/>
				<stop  offset="0.872" style="stop-color:#F3D40E"/>
			</linearGradient>
			<path style="opacity:0.5;fill:url(#SVGID_56_);enable-background:new    ;" d="M173.2,6.3C173.2,6.3,173.3,6.3,173.2,6.3
				c0.1-0.1,0.1-0.1,0.1-0.1v0.1c0,0.1,0,0.3-0.1,0.4c0.1-0.1,0.2-0.3,0.4-0.4h0.1v0.1c-0.1,0.1-0.1,0.4-0.2,0.5
				c0.1-0.1,0.1-0.2,0.2-0.3h0.1v0.1c0,0.1-0.1,0.1-0.1,0.3c-0.1,0.2-0.4,0.4-0.6,0.7l-0.2-0.1l0,0c0-0.3,0.1-0.6,0.1-0.9
				C173.2,6.5,173.2,6.4,173.2,6.3z"/>
			
				<linearGradient id="SVGID_57_" gradientUnits="userSpaceOnUse" x1="-2067.6743" y1="423.2529" x2="-2065.9971" y2="423.2529" gradientTransform="matrix(-0.8909 -0.4542 -0.4542 0.8909 -1475.0391 -1310.3224)">
				<stop  offset="0.2397" style="stop-color:#F89C1C"/>
				<stop  offset="0.872" style="stop-color:#F3D40E"/>
			</linearGradient>
			<path style="opacity:0.5;fill:url(#SVGID_57_);enable-background:new    ;" d="M173.2,5.4c0.1-0.3,0.4-0.4,0.5-0.4
				c0.4,0,0.4,0.3,0.4,0.3s0.4-0.1,0.7,0.4c0.1,0.1,0,0.2,0,0.4c0-0.1,0-0.1-0.1-0.2c-0.1-0.1-0.1-0.3-0.2-0.4
				c-0.1-0.1-0.3-0.1-0.4,0c0-0.1-0.1-0.2-0.1-0.3c-0.1-0.1-0.2-0.1-0.3-0.1c-0.1,0-0.2,0.1-0.3,0.1C173.3,5.3,173.2,5.4,173.2,5.4z
				"/>
			
				<linearGradient id="SVGID_58_" gradientUnits="userSpaceOnUse" x1="-2066.7966" y1="424.1084" x2="-2066.7966" y2="423.3277" gradientTransform="matrix(-0.8909 -0.4542 -0.4542 0.8909 -1475.0391 -1310.3224)">
				<stop  offset="0" style="stop-color:#F89C1C;stop-opacity:0"/>
				<stop  offset="0.5249" style="stop-color:#F3D40E;stop-opacity:0.5"/>
				<stop  offset="1" style="stop-color:#F89C1C;stop-opacity:0"/>
			</linearGradient>
			<path style="fill:url(#SVGID_58_);" d="M173,6.2c0-0.2,0.1-0.4,0.2-0.7c0.1-0.1,0.1-0.2,0.2-0.2c0.1-0.1,0.2-0.1,0.4,0
				c0.1,0.1,0.2,0.1,0.2,0.3c0.1-0.1,0.2-0.1,0.4,0c0.1,0.1,0.1,0.1,0.1,0.3c0,0.1,0,0.1-0.1,0.2c-0.1,0.1-0.2,0.4-0.4,0.5
				C174,6.6,174,6.4,174,6.3c0-0.1-0.1-0.2-0.1-0.3C173.7,6,173.7,6,173.5,6c-0.1,0-0.1,0.1-0.3,0.1C173.2,6.2,173.1,6.2,173,6.2z"
				/>
			
				<linearGradient id="SVGID_59_" gradientUnits="userSpaceOnUse" x1="-2067.1233" y1="423.9715" x2="-2065.9946" y2="423.9715" gradientTransform="matrix(-0.8909 -0.4542 -0.4542 0.8909 -1475.0391 -1310.3224)">
				<stop  offset="0" style="stop-color:#F89C1C;stop-opacity:0"/>
				<stop  offset="0.5249" style="stop-color:#F3D40E;stop-opacity:0.5"/>
				<stop  offset="1" style="stop-color:#F89C1C;stop-opacity:0"/>
			</linearGradient>
			<path style="fill:url(#SVGID_59_);" d="M173.2,5.4c0.1-0.3,0.4-0.4,0.5-0.4c0.4,0,0.4,0.3,0.4,0.3s0.2-0.1,0.4,0
				c-0.4,0.1-0.7,0.4-1,0.7c-0.2,0.3-0.4,0.6-0.6,0.9C172.9,6.3,173,5.8,173.2,5.4z"/>
			
				<linearGradient id="SVGID_60_" gradientUnits="userSpaceOnUse" x1="-2067.1448" y1="425.0552" x2="-2066.5593" y2="425.0552" gradientTransform="matrix(-0.8909 -0.4542 -0.4542 0.8909 -1475.0391 -1310.3224)">
				<stop  offset="0.2397" style="stop-color:#F89C1C"/>
				<stop  offset="0.872" style="stop-color:#F3D40E"/>
			</linearGradient>
			<path style="opacity:0.5;fill:url(#SVGID_60_);enable-background:new    ;" d="M173.2,6.6C173.2,6.6,173.2,6.6,173.2,6.6
				L173.2,6.6c0.1,0.1,0.1,0.3,0.1,0.4c0.1-0.1,0.1-0.1,0.2-0.3l0,0c0,0,0,0,0.1,0c0,0,0,0,0,0.1c0,0,0,0,0,0.1s-0.1,0.2-0.1,0.3
				c0.1-0.1,0.1-0.1,0.2-0.1h0.1l0,0c-0.1,0.2-0.3,0.4-0.5,0.6L173,7.5c0.1-0.2,0.1-0.5,0.1-0.7C173.2,6.7,173.2,6.6,173.2,6.6z"/>
		</g>
		<g>
			
				<linearGradient id="SVGID_61_" gradientUnits="userSpaceOnUse" x1="-1308.2825" y1="1589.0773" x2="-1308.2825" y2="1591.6112" gradientTransform="matrix(-0.6955 0.7185 0.7185 0.6955 -1880.7501 -159.6729)">
				<stop  offset="0.2397" style="stop-color:#F89C1C"/>
				<stop  offset="0.872" style="stop-color:#F3D40E"/>
			</linearGradient>
			<path style="fill:url(#SVGID_61_);" d="M171.1,6.9c-0.2-0.2-0.4-0.5-0.3-0.7c0.1-0.3,0.4-0.3,0.4-0.3s0-0.2,0.1-0.4
				c0.1-0.1,0.2-0.1,0.4-0.1c0.1,0,0.2,0.1,0.4,0.1c0.7,0.4,1,1.9,1,1.9l0,0l-0.1,0.1L173,7.5l-0.1,0.1l0,0c-0.1,0-0.4-0.1-0.5-0.1
				C171.8,7.5,171.4,7.2,171.1,6.9z"/>
			
				<linearGradient id="SVGID_62_" gradientUnits="userSpaceOnUse" x1="-1308.653" y1="1591.34" x2="-1307.899" y2="1591.34" gradientTransform="matrix(-0.6955 0.7185 0.7185 0.6955 -1880.7501 -159.6729)">
				<stop  offset="0.2397" style="stop-color:#F89C1C"/>
				<stop  offset="0.872" style="stop-color:#F3D40E"/>
			</linearGradient>
			<path style="opacity:0.5;fill:url(#SVGID_62_);enable-background:new    ;" d="M172,7.1C172,7,171.9,7,172,7.1c0-0.1,0-0.1,0-0.1
				h0.1c0.1,0,0.3,0.1,0.4,0.2c-0.1-0.1-0.2-0.3-0.4-0.5V6.6h0.1c0.1,0.1,0.3,0.2,0.4,0.4c-0.1-0.1-0.1-0.2-0.2-0.3V6.6h0.1
				c0.1,0.1,0.1,0.1,0.2,0.2c0.1,0.2,0.4,0.4,0.4,0.7l-0.1,0.2l0,0c-0.2-0.2-0.5-0.4-0.7-0.5C172.1,7.2,172,7.2,172,7.1z"/>
			
				<linearGradient id="SVGID_63_" gradientUnits="userSpaceOnUse" x1="-1309.106" y1="1589.7493" x2="-1307.4286" y2="1589.7493" gradientTransform="matrix(-0.6955 0.7185 0.7185 0.6955 -1880.7501 -159.6729)">
				<stop  offset="0.2397" style="stop-color:#F89C1C"/>
				<stop  offset="0.872" style="stop-color:#F3D40E"/>
			</linearGradient>
			<path style="opacity:0.5;fill:url(#SVGID_63_);enable-background:new    ;" d="M171.1,6.9c-0.2-0.2-0.4-0.5-0.3-0.7
				c0.1-0.3,0.4-0.3,0.4-0.3s0-0.5,0.5-0.5c0.1,0,0.2,0.1,0.4,0.1c-0.1,0-0.1,0-0.2,0c-0.1,0-0.3,0-0.4,0.1
				c-0.1,0.1-0.1,0.2-0.1,0.4c-0.1,0-0.2,0-0.3,0.1c-0.1,0.1-0.1,0.1-0.1,0.3c0,0.1,0,0.2,0.1,0.3C171,6.7,171.1,6.8,171.1,6.9z"/>
			
				<linearGradient id="SVGID_64_" gradientUnits="userSpaceOnUse" x1="-1308.2697" y1="1590.6389" x2="-1308.2697" y2="1589.8583" gradientTransform="matrix(-0.6955 0.7185 0.7185 0.6955 -1880.7501 -159.6729)">
				<stop  offset="0" style="stop-color:#F89C1C;stop-opacity:0"/>
				<stop  offset="0.5249" style="stop-color:#F3D40E;stop-opacity:0.5"/>
				<stop  offset="1" style="stop-color:#F89C1C;stop-opacity:0"/>
			</linearGradient>
			<path style="fill:url(#SVGID_64_);" d="M171.7,7.2c-0.2-0.1-0.4-0.2-0.5-0.4c-0.1-0.1-0.1-0.1-0.1-0.3s0-0.3,0.1-0.4
				c0.1-0.1,0.2-0.1,0.4-0.1c0-0.1,0-0.2,0.1-0.3c0.1-0.1,0.2-0.1,0.4-0.1c0.1,0,0.1,0.1,0.2,0.1c0.1,0.1,0.3,0.3,0.4,0.4
				c-0.1,0.1-0.2,0.1-0.3,0.1c-0.1,0-0.2,0-0.3,0.1c-0.1,0.1-0.1,0.1-0.1,0.2c0,0.1,0,0.2,0,0.3C171.8,7,171.8,7.2,171.7,7.2z"/>
			
				<linearGradient id="SVGID_65_" gradientUnits="userSpaceOnUse" x1="-1308.556" y1="1590.4921" x2="-1307.4283" y2="1590.4921" gradientTransform="matrix(-0.6955 0.7185 0.7185 0.6955 -1880.7501 -159.6729)">
				<stop  offset="0" style="stop-color:#F89C1C;stop-opacity:0"/>
				<stop  offset="0.5249" style="stop-color:#F3D40E;stop-opacity:0.5"/>
				<stop  offset="1" style="stop-color:#F89C1C;stop-opacity:0"/>
			</linearGradient>
			<path style="fill:url(#SVGID_65_);" d="M171.1,6.9c-0.2-0.2-0.4-0.5-0.3-0.7c0.1-0.3,0.4-0.3,0.4-0.3s0-0.2,0.1-0.4
				c0,0.4,0.1,0.8,0.4,1.2c0.2,0.3,0.4,0.6,0.7,0.8C171.8,7.5,171.4,7.2,171.1,6.9z"/>
			
				<linearGradient id="SVGID_66_" gradientUnits="userSpaceOnUse" x1="-1308.5765" y1="1591.449" x2="-1307.991" y2="1591.449" gradientTransform="matrix(-0.6955 0.7185 0.7185 0.6955 -1880.7501 -159.6729)">
				<stop  offset="0.2397" style="stop-color:#F89C1C"/>
				<stop  offset="0.872" style="stop-color:#F3D40E"/>
			</linearGradient>
			<path style="opacity:0.5;fill:url(#SVGID_66_);enable-background:new    ;" d="M172.3,7.2L172.3,7.2L172.3,7.2
				c0.1-0.1,0.2,0,0.3,0c-0.1-0.1-0.1-0.1-0.2-0.3c0,0,0,0,0-0.1c0,0,0,0,0-0.1c0,0,0,0,0.1,0c0,0,0,0,0.1,0
				c0.1,0.1,0.1,0.1,0.2,0.2c0-0.1-0.1-0.1-0.1-0.2V6.7l0,0c0.1,0.2,0.3,0.4,0.4,0.7L173,7.5C172.8,7.4,172.6,7.2,172.3,7.2
				C172.3,7.2,172.3,7.2,172.3,7.2z"/>
		</g>
		<g>
			
				<linearGradient id="SVGID_67_" gradientUnits="userSpaceOnUse" x1="69.8445" y1="1148.1219" x2="69.8445" y2="1150.6558" gradientTransform="matrix(0.5357 0.8444 0.8444 -0.5357 -836.3049 565.2696)">
				<stop  offset="0.2397" style="stop-color:#F89C1C"/>
				<stop  offset="0.872" style="stop-color:#F3D40E"/>
			</linearGradient>
			<path style="fill:url(#SVGID_67_);" d="M172,9.3c-0.3,0.1-0.6,0.2-0.7,0.1C171,9.3,171.1,9,171.1,9s-0.2,0-0.3-0.2
				c-0.1-0.1-0.1-0.2-0.1-0.4c0-0.1,0.1-0.2,0.2-0.3c0.6-0.5,2.1-0.6,2.1-0.6l0,0v0.1l0.1,0.1v0.1l0,0c-0.1,0.1-0.1,0.4-0.2,0.4
				C172.6,8.8,172.3,9.2,172,9.3z"/>
			
				<linearGradient id="SVGID_68_" gradientUnits="userSpaceOnUse" x1="69.4991" y1="1150.301" x2="70.253" y2="1150.301" gradientTransform="matrix(0.5357 0.8444 0.8444 -0.5357 -836.3049 565.2696)">
				<stop  offset="0.2397" style="stop-color:#F89C1C"/>
				<stop  offset="0.872" style="stop-color:#F3D40E"/>
			</linearGradient>
			<path style="opacity:0.5;fill:url(#SVGID_68_);enable-background:new    ;" d="M172.3,8.6C172.3,8.6,172.3,8.6,172.3,8.6
				c-0.1,0-0.1,0-0.1,0V8.5c0.1-0.1,0.1-0.2,0.3-0.4c-0.1,0.1-0.4,0.1-0.6,0.2h-0.1V8.3c0.1-0.1,0.3-0.2,0.4-0.3
				c-0.1,0-0.1,0.1-0.3,0.1h-0.1V8c0.1-0.1,0.1-0.1,0.2-0.1c0.3-0.1,0.5-0.2,0.8-0.3l0.1,0.2l0,0c-0.1,0.2-0.4,0.4-0.6,0.7
				C172.5,8.4,172.4,8.5,172.3,8.6z"/>
			
				<linearGradient id="SVGID_69_" gradientUnits="userSpaceOnUse" x1="69.046" y1="1148.8511" x2="70.7233" y2="1148.8511" gradientTransform="matrix(0.5357 0.8444 0.8444 -0.5357 -836.3049 565.2696)">
				<stop  offset="0.2397" style="stop-color:#F89C1C"/>
				<stop  offset="0.872" style="stop-color:#F3D40E"/>
			</linearGradient>
			<path style="opacity:0.5;fill:url(#SVGID_69_);enable-background:new    ;" d="M172,9.3c-0.3,0.1-0.6,0.2-0.7,0.1
				C171,9.3,171.1,9,171.1,9s-0.5-0.1-0.4-0.7c0-0.1,0.1-0.2,0.2-0.3c-0.1,0.1-0.1,0.1-0.1,0.2c0,0.1,0,0.3,0,0.4
				c0.1,0.1,0.2,0.2,0.4,0.1c-0.1,0.1-0.1,0.2,0,0.3c0,0.1,0.1,0.2,0.2,0.2s0.2,0,0.3,0C171.8,9.4,171.9,9.4,172,9.3z"/>
			
				<linearGradient id="SVGID_70_" gradientUnits="userSpaceOnUse" x1="69.8647" y1="1149.6836" x2="69.8647" y2="1148.9028" gradientTransform="matrix(0.5357 0.8444 0.8444 -0.5357 -836.3049 565.2696)">
				<stop  offset="0" style="stop-color:#F89C1C;stop-opacity:0"/>
				<stop  offset="0.5249" style="stop-color:#F3D40E;stop-opacity:0.5"/>
				<stop  offset="1" style="stop-color:#F89C1C;stop-opacity:0"/>
			</linearGradient>
			<path style="fill:url(#SVGID_70_);" d="M172.5,8.8c-0.1,0.1-0.3,0.3-0.5,0.4c-0.1,0.1-0.2,0.1-0.3,0.1c-0.1,0-0.2-0.1-0.3-0.2
				c-0.1-0.1-0.1-0.2-0.1-0.4c-0.1,0-0.2-0.1-0.3-0.2c-0.1-0.1-0.1-0.2,0-0.4c0.1-0.1,0.1-0.1,0.1-0.1c0.1-0.1,0.4-0.2,0.5-0.2
				c0,0.1,0,0.2,0,0.3c0,0.1-0.1,0.2,0,0.3c0.1,0.1,0.1,0.1,0.2,0.1s0.2,0.1,0.3,0.1C172.3,8.7,172.4,8.7,172.5,8.8z"/>
			
				<linearGradient id="SVGID_71_" gradientUnits="userSpaceOnUse" x1="69.596" y1="1149.5686" x2="70.7236" y2="1149.5686" gradientTransform="matrix(0.5357 0.8444 0.8444 -0.5357 -836.3049 565.2696)">
				<stop  offset="0" style="stop-color:#F89C1C;stop-opacity:0"/>
				<stop  offset="0.5249" style="stop-color:#F3D40E;stop-opacity:0.5"/>
				<stop  offset="1" style="stop-color:#F89C1C;stop-opacity:0"/>
			</linearGradient>
			<path style="fill:url(#SVGID_71_);" d="M172,9.3c-0.3,0.1-0.6,0.2-0.7,0.1C171,9.3,171.1,9,171.1,9s-0.2,0-0.3-0.2
				c0.4,0.1,0.8,0.1,1.2,0c0.4-0.1,0.7-0.3,1-0.5C172.6,8.8,172.3,9.2,172,9.3z"/>
			
				<linearGradient id="SVGID_72_" gradientUnits="userSpaceOnUse" x1="69.5755" y1="1150.4839" x2="70.1612" y2="1150.4839" gradientTransform="matrix(0.5357 0.8444 0.8444 -0.5357 -836.3049 565.2696)">
				<stop  offset="0.2397" style="stop-color:#F89C1C"/>
				<stop  offset="0.872" style="stop-color:#F3D40E"/>
			</linearGradient>
			<path style="opacity:0.5;fill:url(#SVGID_72_);enable-background:new    ;" d="M172.6,8.4C172.6,8.4,172.5,8.4,172.6,8.4
				l-0.1-0.1c0.1-0.1,0.1-0.1,0.1-0.2c-0.1,0.1-0.2,0.1-0.3,0.1c0,0,0,0-0.1,0c0,0,0,0-0.1,0c0,0,0,0,0-0.1l0,0
				c0.1-0.1,0.1-0.1,0.3-0.2c-0.1,0-0.1,0-0.3,0h-0.1l0,0c0.2-0.1,0.5-0.2,0.7-0.3l0.1,0.1C172.8,7.9,172.6,8.1,172.6,8.4
				C172.6,8.3,172.6,8.3,172.6,8.4z"/>
		</g>
		<g>
			
				<linearGradient id="SVGID_73_" gradientUnits="userSpaceOnUse" x1="172.8498" y1="28.9935" x2="173.333" y2="28.9935" gradientTransform="matrix(1 0 0 -1 0 36.6041)">
				<stop  offset="0.2397" style="stop-color:#F89C1C"/>
				<stop  offset="0.872" style="stop-color:#F3D40E"/>
			</linearGradient>
			<circle style="fill:url(#SVGID_73_);" cx="173.1" cy="7.6" r="0.2"/>
			<circle style="fill:#613B15;" cx="173.1" cy="7.6" r="0.1"/>
		</g>
	</g>
	<g>
		<path style="fill:none;stroke:#613B15;stroke-width:5.096443e-02;stroke-miterlimit:10;" d="M172.3,8.1c0.2-0.2,0.4-0.4,0.7-0.5"
			/>
		<path style="fill:none;stroke:#613B15;stroke-width:5.096443e-02;stroke-miterlimit:10;" d="M173.1,7.6c0.1,0.3,0.1,0.7,0.1,1"/>
		<path style="fill:none;stroke:#613B15;stroke-width:5.096443e-02;stroke-miterlimit:10;" d="M173.2,7.5c0.3,0.1,0.6,0.3,1,0.3"/>
		<path style="fill:none;stroke:#613B15;stroke-width:5.096443e-02;stroke-miterlimit:10;" d="M173.1,7.5c0.1-0.3,0.4-0.6,0.6-0.9"
			/>
		<path style="fill:none;stroke:#613B15;stroke-width:5.096443e-02;stroke-miterlimit:10;" d="M173.1,7.5c-0.2-0.2-0.5-0.4-0.8-0.5"
			/>
		<path style="fill:none;stroke:#613B15;stroke-width:5.096443e-02;stroke-miterlimit:10;" d="M173,7.7c-0.1,0.2-0.2,0.4-0.4,0.5"/>
		<path style="fill:none;stroke:#613B15;stroke-width:5.096443e-02;stroke-miterlimit:10;" d="M173.1,7.5c0-0.1-0.1-0.3-0.2-0.4"/>
		<path style="fill:none;stroke:#613B15;stroke-width:5.096443e-02;stroke-miterlimit:10;" d="M173.2,7.5c0.1,0,0.3,0,0.4,0.1"/>
		<path style="fill:#613B15;" d="M172.4,8.1C172.4,8.2,172.4,8.2,172.4,8.1c-0.1,0.1-0.1,0.1-0.1,0S172.3,8.1,172.4,8.1
			C172.3,8.1,172.4,8.1,172.4,8.1z"/>
		<path style="fill:#613B15;" d="M172.8,8.2C172.8,8.3,172.8,8.3,172.8,8.2c-0.1,0.1-0.1,0.1-0.1,0S172.6,8.1,172.8,8.2L172.8,8.2z"
			/>
		<path style="fill:#613B15;" d="M173.3,8.6C173.3,8.7,173.3,8.7,173.3,8.6c-0.1,0.1-0.1,0.1-0.1,0S173.2,8.5,173.3,8.6
			C173.3,8.5,173.3,8.6,173.3,8.6z"/>
		<path style="fill:#613B15;" d="M173.7,7.6C173.7,7.7,173.7,7.7,173.7,7.6c-0.1,0.1-0.1,0.1-0.1,0S173.6,7.5,173.7,7.6
			C173.7,7.5,173.7,7.5,173.7,7.6z"/>
		<path style="fill:#613B15;" d="M174.2,7.9C174.2,8,174.2,8,174.2,7.9C174,8,174,8,174,7.9S174,7.8,174.2,7.9
			C174.2,7.8,174.2,7.8,174.2,7.9z"/>
		<path style="fill:#613B15;" d="M172.9,7C172.9,7.1,172.9,7.1,172.9,7c-0.1,0.1-0.1,0.1-0.1,0C172.8,6.9,172.8,6.9,172.9,7
			C172.9,6.9,172.9,7,172.9,7z"/>
		<path style="fill:#613B15;" d="M172.3,7C172.3,7.1,172.3,7.1,172.3,7c-0.1,0.1-0.1,0.1-0.1,0C172.2,6.9,172.2,6.9,172.3,7
			C172.3,6.9,172.3,6.9,172.3,7z"/>
		<path style="fill:#613B15;" d="M173.7,6.6C173.7,6.7,173.7,6.7,173.7,6.6c-0.1,0.1-0.1,0.1-0.1,0S173.6,6.6,173.7,6.6
			C173.7,6.6,173.7,6.6,173.7,6.6z"/>
	</g>
</g>
<g>
	<path style="opacity:0.15;fill-rule:evenodd;clip-rule:evenodd;" d="M10.2,34.4c7.4,6.6,18.7,6,25.3-1.4L22.1,21.1L10.2,34.4z"/>
	<g>
		<g>
			<path style="fill-rule:evenodd;clip-rule:evenodd;fill:#3E8A3E;" d="M11.3,35.4c7.4,6.6,18.7,6,25.3-1.4L23.2,22.1L11.3,35.4z"/>
			<path style="fill-rule:evenodd;clip-rule:evenodd;fill:#FFEFDE;" d="M12,34.6c6.9,6.2,17.5,5.6,23.6-1.3L23.2,22.1L12,34.6z"/>
			<path style="fill-rule:evenodd;clip-rule:evenodd;fill:#FF4545;" d="M13.4,33.1c6.1,5.4,15.4,4.9,20.8-1.2l-11-9.8L13.4,33.1z"/>
		</g>
		<g>
			<path style="fill-rule:evenodd;clip-rule:evenodd;fill:#003954;" d="M28.2,29.2c0,0.1,0.7,0.6,1,0.7c0.3,0.1,0.5-0.1,0.6-0.3
				c0.1-0.2-0.1-0.5-0.4-0.6C29.1,28.9,28.2,29,28.2,29.2z"/>
			<path style="fill-rule:evenodd;clip-rule:evenodd;fill:#003954;" d="M26.4,28.2c-0.1,0-0.2,0.9-0.1,1.2c0.1,0.3,0.3,0.4,0.6,0.3
				c0.2-0.1,0.4-0.3,0.3-0.6C27,28.8,26.5,28.1,26.4,28.2z"/>
			<path style="fill-rule:evenodd;clip-rule:evenodd;fill:#003954;" d="M26.6,26.9c0.1,0,0.1-0.9,0-1.2c-0.1-0.3-0.4-0.4-0.6-0.3
				c-0.2,0.1-0.4,0.3-0.2,0.6C25.9,26.3,26.4,27,26.6,26.9z"/>
			<path style="fill-rule:evenodd;clip-rule:evenodd;fill:#003954;" d="M25.1,30c-0.1-0.1-0.9,0.1-1.2,0.3c-0.3,0.2-0.3,0.5-0.1,0.7
				c0.1,0.2,0.4,0.3,0.7,0.1C24.7,30.9,25.2,30.1,25.1,30z"/>
			<path style="fill-rule:evenodd;clip-rule:evenodd;fill:#003954;" d="M24.1,27.2c0-0.1-0.8-0.4-1.1-0.4c-0.3,0-0.5,0.2-0.5,0.5
				c0,0.2,0.2,0.4,0.5,0.4C23.4,27.7,24.1,27.4,24.1,27.2z"/>
			<path style="fill-rule:evenodd;clip-rule:evenodd;fill:#003954;" d="M20.1,28.4c-0.1,0-0.4,0.8-0.4,1.1c0,0.3,0.2,0.5,0.5,0.5
				c0.2,0,0.4-0.2,0.4-0.5C20.6,29.2,20.3,28.4,20.1,28.4z"/>
			<path style="fill-rule:evenodd;clip-rule:evenodd;fill:#003954;" d="M23.9,24.6c-0.1-0.1-0.9,0.2-1.2,0.4
				c-0.3,0.2-0.3,0.5-0.1,0.7c0.2,0.2,0.4,0.2,0.7,0C23.6,25.4,24,24.7,23.9,24.6z"/>
			<path style="fill-rule:evenodd;clip-rule:evenodd;fill:#003954;" d="M17.6,30.8c-0.1,0.1,0.2,0.9,0.4,1.1
				c0.2,0.2,0.5,0.2,0.7,0.1c0.2-0.2,0.2-0.4,0-0.7C18.5,31.1,17.7,30.7,17.6,30.8z"/>
		</g>
		<path style="opacity:0.15;fill-rule:evenodd;clip-rule:evenodd;fill:#FFFFFF;" d="M27.9,26.3c-1.8,2.9-5.2,4.9-9.2,5.1
			c-1.2,0.1-2.4-0.1-3.6-0.3l8-9L27.9,26.3z"/>
	</g>
</g>
<g>
	<g>
		<g>
			
				<linearGradient id="SVGID_74_" gradientUnits="userSpaceOnUse" x1="-149.5585" y1="-222.7649" x2="-149.5585" y2="-215.3188" gradientTransform="matrix(0.9652 -0.2615 -0.2615 -0.9652 97.9435 -215.0845)">
				<stop  offset="0.2397" style="stop-color:#F89C1C"/>
				<stop  offset="0.872" style="stop-color:#F3D40E"/>
			</linearGradient>
			<path style="fill:url(#SVGID_74_);" d="M13.4,35.3c0.2,1.1,0.2,1.8-0.2,2.2c-0.7,0.7-1.5,0.2-1.5,0.2s-0.2,0.4-0.9,0.7
				c-0.2,0-0.7,0-1.3-0.2c-0.4-0.2-0.7-0.4-0.7-0.9c-0.9-2,0.2-6.4,0.2-6.4l0,0h0.2l0.4-0.2h0.2l0,0c0.4,0.2,0.9,0.7,1.1,0.9
				C12.5,32.9,13.2,34.2,13.4,35.3z"/>
			
				<linearGradient id="SVGID_75_" gradientUnits="userSpaceOnUse" x1="-150.5843" y1="-216.1646" x2="-148.3688" y2="-216.1646" gradientTransform="matrix(0.9652 -0.2615 -0.2615 -0.9652 97.9435 -215.0845)">
				<stop  offset="0.2397" style="stop-color:#F89C1C"/>
				<stop  offset="0.872" style="stop-color:#F3D40E"/>
			</linearGradient>
			<path style="opacity:0.5;fill:url(#SVGID_75_);enable-background:new    ;" d="M11.7,33.5C11.7,33.7,11.7,33.7,11.7,33.5
				c0,0.2,0,0.2-0.2,0.4h-0.2c-0.2-0.2-0.7-0.7-0.7-1.1c0,0.4,0,1.1,0,1.8v0.2c0,0-0.2,0-0.2-0.2c-0.2-0.4-0.4-1.1-0.4-1.5
				c0,0.4,0,0.7,0,1.1v0.2c0,0-0.2,0-0.2-0.2c-0.2-0.2-0.2-0.7-0.2-0.9c-0.2-0.9-0.2-1.8-0.2-2.6l0.7-0.2l0,0
				c0.7,0.7,1.1,1.3,1.3,2.2C11.4,33.1,11.7,33.3,11.7,33.5z"/>
			
				<linearGradient id="SVGID_76_" gradientUnits="userSpaceOnUse" x1="-151.9153" y1="-220.6931" x2="-146.9867" y2="-220.6931" gradientTransform="matrix(0.9652 -0.2615 -0.2615 -0.9652 97.9435 -215.0845)">
				<stop  offset="0.2397" style="stop-color:#F89C1C"/>
				<stop  offset="0.872" style="stop-color:#F3D40E"/>
			</linearGradient>
			<path style="opacity:0.5;fill:url(#SVGID_76_);enable-background:new    ;" d="M13.4,35.3c0.2,1.1,0.2,1.8-0.2,2.2
				c-0.7,0.7-1.5,0.2-1.5,0.2S11,39,9.5,38.1c-0.4-0.2-0.7-0.4-0.7-0.9c0.2,0.2,0.4,0.4,0.7,0.4c0.4,0.2,0.9,0.4,1.1,0.2
				c0.4,0,0.9-0.4,0.9-0.9c0.2,0.2,0.4,0.2,0.9,0.2c0.2,0,0.7-0.2,0.9-0.4c0.2-0.2,0.2-0.7,0.2-0.9C13.4,35.9,13.4,35.5,13.4,35.3z"
				/>
			
				<linearGradient id="SVGID_77_" gradientUnits="userSpaceOnUse" x1="-149.5118" y1="-218.1756" x2="-149.5118" y2="-220.4698" gradientTransform="matrix(0.9652 -0.2615 -0.2615 -0.9652 97.9435 -215.0845)">
				<stop  offset="0" style="stop-color:#F89C1C;stop-opacity:0"/>
				<stop  offset="0.5249" style="stop-color:#F3D40E;stop-opacity:0.5"/>
				<stop  offset="1" style="stop-color:#F89C1C;stop-opacity:0"/>
			</linearGradient>
			<path style="fill:url(#SVGID_77_);" d="M12.3,33.5c0.4,0.4,0.7,1.1,0.9,1.8c0,0.2,0.2,0.7,0,0.9c-0.2,0.4-0.4,0.7-0.9,0.7
				c-0.4,0-0.9,0-1.1-0.2c-0.2,0.4-0.4,0.7-0.9,0.7s-0.7,0-1.1-0.4C9,36.6,9,36.4,8.8,36.1c-0.2-0.7-0.2-1.1-0.2-1.8
				c0.2,0,0.7,0.2,0.9,0.4C9.7,35,10.1,35,10.3,35c0.2,0,0.4-0.2,0.7-0.4c0.2-0.2,0.2-0.4,0.4-0.7C11.9,34,12.1,33.5,12.3,33.5z"/>
			
				<linearGradient id="SVGID_78_" gradientUnits="userSpaceOnUse" x1="-150.2993" y1="-218.6644" x2="-146.9858" y2="-218.6644" gradientTransform="matrix(0.9652 -0.2615 -0.2615 -0.9652 97.9435 -215.0845)">
				<stop  offset="0" style="stop-color:#F89C1C;stop-opacity:0"/>
				<stop  offset="0.5249" style="stop-color:#F3D40E;stop-opacity:0.5"/>
				<stop  offset="1" style="stop-color:#F89C1C;stop-opacity:0"/>
			</linearGradient>
			<path style="fill:url(#SVGID_78_);" d="M13.4,35.3c0.2,1.1,0.2,1.8-0.2,2.2c-0.7,0.7-1.5,0.2-1.5,0.2s-0.2,0.4-0.9,0.7
				c0.7-1.1,0.9-2.4,0.9-3.5s-0.2-2.2-0.7-3.1C12.5,32.9,13.2,34.2,13.4,35.3z"/>
			
				<linearGradient id="SVGID_79_" gradientUnits="userSpaceOnUse" x1="-150.3586" y1="-215.5782" x2="-148.6375" y2="-215.5782" gradientTransform="matrix(0.9652 -0.2615 -0.2615 -0.9652 97.9435 -215.0845)">
				<stop  offset="0.2397" style="stop-color:#F89C1C"/>
				<stop  offset="0.872" style="stop-color:#F3D40E"/>
			</linearGradient>
			<path style="opacity:0.5;fill:url(#SVGID_79_);enable-background:new    ;" d="M11,32.9c0,0.2,0,0.2-0.2,0.2h-0.2
				c-0.2-0.2-0.4-0.4-0.4-0.7c0,0.2,0,0.7,0,0.9c0,0,0,0,0,0.2l0,0c0,0,0,0-0.2,0c0,0,0,0,0-0.2c-0.2-0.2-0.2-0.7-0.2-0.9
				c0,0.2,0,0.4-0.2,0.7v0.2l0,0c-0.2-0.9-0.2-1.5,0-2.4l0.4-0.2c0.2,0.7,0.7,1.1,1.1,1.8C11,32.6,11,32.6,11,32.9z"/>
		</g>
		<g>
			
				<linearGradient id="SVGID_80_" gradientUnits="userSpaceOnUse" x1="-1186.327" y1="-503.8286" x2="-1186.327" y2="-496.3826" gradientTransform="matrix(0.2109 -0.9775 -0.9775 -0.2109 -224.1699 -1233.7267)">
				<stop  offset="0.2397" style="stop-color:#F89C1C"/>
				<stop  offset="0.872" style="stop-color:#F3D40E"/>
			</linearGradient>
			<path style="fill:url(#SVGID_80_);" d="M15.6,29.1c1.1,0.2,1.8,0.7,1.8,1.1c0.2,1.1-0.4,1.5-0.4,1.5s0.4,0.4,0.2,1.1
				c0,0.2-0.2,0.7-0.9,0.9C16,34,15.6,34,15.2,34c-2.2,0-5.5-3.1-5.5-3.1l0,0v-0.2v-0.4V30l0,0c0.4-0.2,0.9-0.4,1.3-0.7
				C13,28.9,14.5,28.9,15.6,29.1z"/>
			
				<linearGradient id="SVGID_81_" gradientUnits="userSpaceOnUse" x1="-1187.5065" y1="-497.3206" x2="-1185.291" y2="-497.3206" gradientTransform="matrix(0.2109 -0.9775 -0.9775 -0.2109 -224.1699 -1233.7267)">
				<stop  offset="0.2397" style="stop-color:#F89C1C"/>
				<stop  offset="0.872" style="stop-color:#F3D40E"/>
			</linearGradient>
			<path style="opacity:0.5;fill:url(#SVGID_81_);enable-background:new    ;" d="M13.2,30L13.2,30c0.2,0.2,0.2,0.2,0.2,0.2
				s0,0-0.2,0.2c-0.4,0.2-0.9,0.2-1.3,0.2c0.7,0.2,1.1,0.4,1.8,0.7c0,0,0.2,0,0.2,0.2h-0.2c-0.7,0-1.1-0.2-1.5-0.2
				c0,0.2,0.4,0.4,0.7,0.7c0,0,0.2,0,0.2,0.2c0,0,0,0-0.2,0.2c-0.2,0-0.7,0-0.9-0.2c-0.9-0.2-1.5-0.7-2.4-1.1l0.2-0.7l0,0
				c0.9-0.2,1.8-0.2,2.6-0.2C12.5,30,13,30,13.2,30z"/>
			
				<linearGradient id="SVGID_82_" gradientUnits="userSpaceOnUse" x1="-1188.8375" y1="-501.8833" x2="-1183.9089" y2="-501.8833" gradientTransform="matrix(0.2109 -0.9775 -0.9775 -0.2109 -224.1699 -1233.7267)">
				<stop  offset="0.2397" style="stop-color:#F89C1C"/>
				<stop  offset="0.872" style="stop-color:#F3D40E"/>
			</linearGradient>
			<path style="opacity:0.5;fill:url(#SVGID_82_);enable-background:new    ;" d="M15.6,29.1c1.1,0.2,1.8,0.7,1.8,1.1
				c0.2,1.1-0.4,1.5-0.4,1.5s0.9,1.1-0.4,2.2c-0.2,0.2-0.7,0.2-1.1,0.2c0.2,0,0.4-0.2,0.7-0.2c0.4-0.2,0.7-0.4,0.9-0.9
				c0.2-0.4,0-0.9-0.4-1.1c0.2-0.2,0.4-0.2,0.7-0.7c0.2-0.2,0.2-0.7,0-0.9c-0.2-0.2-0.4-0.4-0.7-0.7C16,29.3,15.8,29.3,15.6,29.1z"
				/>
			
				<linearGradient id="SVGID_83_" gradientUnits="userSpaceOnUse" x1="-1186.5144" y1="-499.2393" x2="-1186.5144" y2="-501.5335" gradientTransform="matrix(0.2109 -0.9775 -0.9775 -0.2109 -224.1699 -1233.7267)">
				<stop  offset="0" style="stop-color:#F89C1C;stop-opacity:0"/>
				<stop  offset="0.5249" style="stop-color:#F3D40E;stop-opacity:0.5"/>
				<stop  offset="1" style="stop-color:#F89C1C;stop-opacity:0"/>
			</linearGradient>
			<path style="fill:url(#SVGID_83_);" d="M13.4,29.3c0.7,0,1.3,0,2,0.2c0.2,0,0.7,0.2,0.9,0.4c0.2,0.2,0.4,0.7,0.2,1.1
				c0,0.4-0.4,0.7-0.7,0.9c0.2,0.2,0.2,0.7,0.2,1.1c0,0.4-0.4,0.7-0.7,0.7s-0.4,0-0.9,0c-0.7,0-1.1-0.2-1.8-0.7
				c0.2-0.2,0.4-0.4,0.7-0.7s0.7-0.4,0.7-0.7c0-0.2,0-0.7,0-0.9c-0.2-0.2-0.2-0.4-0.4-0.7C13.6,29.8,13.4,29.6,13.4,29.3z"/>
			
				<linearGradient id="SVGID_84_" gradientUnits="userSpaceOnUse" x1="-1187.2217" y1="-499.7659" x2="-1183.9081" y2="-499.7659" gradientTransform="matrix(0.2109 -0.9775 -0.9775 -0.2109 -224.1699 -1233.7267)">
				<stop  offset="0" style="stop-color:#F89C1C;stop-opacity:0"/>
				<stop  offset="0.5249" style="stop-color:#F3D40E;stop-opacity:0.5"/>
				<stop  offset="1" style="stop-color:#F89C1C;stop-opacity:0"/>
			</linearGradient>
			<path style="fill:url(#SVGID_84_);" d="M15.6,29.1c1.1,0.2,1.8,0.7,1.8,1.1c0.2,1.1-0.4,1.5-0.4,1.5s0.4,0.4,0.2,1.1
				c-0.7-1.1-1.8-2-2.9-2.4c-0.9-0.4-2-0.7-3.1-0.9C13,28.9,14.5,28.9,15.6,29.1z"/>
			
				<linearGradient id="SVGID_85_" gradientUnits="userSpaceOnUse" x1="-1187.282" y1="-496.5621" x2="-1185.5612" y2="-496.5621" gradientTransform="matrix(0.2109 -0.9775 -0.9775 -0.2109 -224.1699 -1233.7267)">
				<stop  offset="0.2397" style="stop-color:#F89C1C"/>
				<stop  offset="0.872" style="stop-color:#F3D40E"/>
			</linearGradient>
			<path style="opacity:0.5;fill:url(#SVGID_85_);enable-background:new    ;" d="M12.1,30l0.2,0.2c0,0-0.2,0-0.2,0.2
				c-0.2,0-0.4,0.2-0.9,0.2c0.2,0.2,0.7,0.2,0.9,0.4c0,0,0,0,0.2,0c0,0,0,0,0,0.2l0,0c0,0,0,0-0.2,0s-0.7,0-0.9-0.2
				c0.2,0.2,0.4,0.2,0.7,0.4c0,0,0,0,0,0.2l0,0c-0.9-0.2-1.5-0.7-2.2-1.1v-0.4c0.7,0,1.5-0.2,2.2-0.2L12.1,30z"/>
		</g>
		<g>
			
				<linearGradient id="SVGID_86_" gradientUnits="userSpaceOnUse" x1="-1931.3955" y1="511.5365" x2="-1931.3955" y2="518.9825" gradientTransform="matrix(-0.8909 -0.4542 -0.4542 0.8909 -1475.0391 -1310.3224)">
				<stop  offset="0.2397" style="stop-color:#F89C1C"/>
				<stop  offset="0.872" style="stop-color:#F3D40E"/>
			</linearGradient>
			<path style="fill:url(#SVGID_86_);" d="M9.7,24.3c0.4-0.9,1.1-1.3,1.5-1.3c1.1,0,1.3,0.9,1.3,0.9s0.7-0.2,1.1,0
				c0.2,0.2,0.7,0.4,0.7,1.1c0.2,0.4,0,0.7,0,1.1c-0.7,2.2-4.4,4.6-4.4,4.6l0,0H9.7l-0.4-0.2H9l0,0c-0.2-0.4-0.2-1.1-0.2-1.5
				C8.8,26.9,9.2,25.4,9.7,24.3z"/>
			
				<linearGradient id="SVGID_87_" gradientUnits="userSpaceOnUse" x1="-1932.5256" y1="518.4157" x2="-1930.3102" y2="518.4157" gradientTransform="matrix(-0.8909 -0.4542 -0.4542 0.8909 -1475.0391 -1310.3224)">
				<stop  offset="0.2397" style="stop-color:#F89C1C"/>
				<stop  offset="0.872" style="stop-color:#F3D40E"/>
			</linearGradient>
			<path style="opacity:0.5;fill:url(#SVGID_87_);enable-background:new    ;" d="M9.9,26.9C9.9,26.7,10.1,26.7,9.9,26.9
				c0.2-0.2,0.2-0.2,0.4-0.2v0.2c0,0.4,0,0.9-0.2,1.3c0.2-0.4,0.7-0.9,1.1-1.3h0.2v0.2c-0.2,0.4-0.4,1.1-0.7,1.5
				c0.2-0.2,0.4-0.7,0.7-0.9h0.2V28c0,0.2-0.2,0.4-0.4,0.9c-0.4,0.7-1.1,1.3-1.8,2l-0.7-0.4l0,0c0-0.9,0.2-1.8,0.4-2.6
				C9.7,27.4,9.7,27.2,9.9,26.9z"/>
			
				<linearGradient id="SVGID_88_" gradientUnits="userSpaceOnUse" x1="-1933.8569" y1="513.6116" x2="-1928.9282" y2="513.6116" gradientTransform="matrix(-0.8909 -0.4542 -0.4542 0.8909 -1475.0391 -1310.3224)">
				<stop  offset="0.2397" style="stop-color:#F89C1C"/>
				<stop  offset="0.872" style="stop-color:#F3D40E"/>
			</linearGradient>
			<path style="opacity:0.5;fill:url(#SVGID_88_);enable-background:new    ;" d="M9.7,24.3c0.4-0.9,1.1-1.3,1.5-1.3
				c1.1,0,1.3,0.9,1.3,0.9s1.3-0.4,2,1.1c0.2,0.4,0,0.7,0,1.1c0-0.2,0-0.4-0.2-0.7c-0.2-0.4-0.4-0.9-0.7-1.1c-0.4-0.2-0.9-0.2-1.1,0
				c0-0.2-0.2-0.7-0.4-0.9c-0.2-0.2-0.7-0.2-0.9-0.2c-0.2,0-0.7,0.2-0.9,0.4C10.1,23.9,9.9,24.1,9.7,24.3z"/>
			
				<linearGradient id="SVGID_89_" gradientUnits="userSpaceOnUse" x1="-1931.2778" y1="516.1255" x2="-1931.2778" y2="513.8314" gradientTransform="matrix(-0.8909 -0.4542 -0.4542 0.8909 -1475.0391 -1310.3224)">
				<stop  offset="0" style="stop-color:#F89C1C;stop-opacity:0"/>
				<stop  offset="0.5249" style="stop-color:#F3D40E;stop-opacity:0.5"/>
				<stop  offset="1" style="stop-color:#F89C1C;stop-opacity:0"/>
			</linearGradient>
			<path style="fill:url(#SVGID_89_);" d="M9.2,26.5c0-0.7,0.2-1.3,0.7-2c0.2-0.2,0.2-0.7,0.7-0.7c0.4-0.2,0.7-0.2,1.1,0
				s0.7,0.4,0.7,0.9c0.2-0.2,0.7-0.2,1.1,0c0.2,0.2,0.4,0.4,0.4,0.9c0,0.2,0,0.4-0.2,0.7c-0.2,0.4-0.7,1.1-1.1,1.5
				c-0.2-0.2-0.2-0.7-0.4-0.9c0-0.2-0.2-0.7-0.4-0.9c-0.2-0.2-0.4-0.2-0.9-0.2c-0.2,0-0.4,0.2-0.9,0.2C9.9,26.5,9.5,26.5,9.2,26.5z"
				/>
			
				<linearGradient id="SVGID_90_" gradientUnits="userSpaceOnUse" x1="-1932.2379" y1="515.7233" x2="-1928.921" y2="515.7233" gradientTransform="matrix(-0.8909 -0.4542 -0.4542 0.8909 -1475.0391 -1310.3224)">
				<stop  offset="0" style="stop-color:#F89C1C;stop-opacity:0"/>
				<stop  offset="0.5249" style="stop-color:#F3D40E;stop-opacity:0.5"/>
				<stop  offset="1" style="stop-color:#F89C1C;stop-opacity:0"/>
			</linearGradient>
			<path style="fill:url(#SVGID_90_);" d="M9.7,24.3c0.4-0.9,1.1-1.3,1.5-1.3c1.1,0,1.3,0.9,1.3,0.9s0.7-0.2,1.1,0
				c-1.1,0.4-2.2,1.1-3.1,2.2c-0.7,0.9-1.3,1.8-1.8,2.6C8.8,26.9,9.2,25.4,9.7,24.3z"/>
			
				<linearGradient id="SVGID_91_" gradientUnits="userSpaceOnUse" x1="-1932.3013" y1="518.9078" x2="-1930.5803" y2="518.9078" gradientTransform="matrix(-0.8909 -0.4542 -0.4542 0.8909 -1475.0391 -1310.3224)">
				<stop  offset="0.2397" style="stop-color:#F89C1C"/>
				<stop  offset="0.872" style="stop-color:#F3D40E"/>
			</linearGradient>
			<path style="opacity:0.5;fill:url(#SVGID_91_);enable-background:new    ;" d="M9.7,27.8c0,0,0.2-0.2,0.2,0V28c0,0.2,0,0.7,0,0.9
				c0.2-0.2,0.4-0.4,0.7-0.9l0,0c0,0,0,0,0.2,0c0,0,0,0,0,0.2c0,0,0,0,0,0.2s-0.2,0.7-0.4,0.9c0.2-0.2,0.4-0.2,0.7-0.4h0.2l0,0
				c-0.4,0.7-0.9,1.3-1.5,1.8l-0.4-0.2c0.2-0.7,0.2-1.5,0.4-2.2C9.7,28,9.7,27.8,9.7,27.8z"/>
		</g>
		<g>
			
				<linearGradient id="SVGID_92_" gradientUnits="userSpaceOnUse" x1="-1177.8965" y1="1481.7255" x2="-1177.8965" y2="1489.1718" gradientTransform="matrix(-0.6955 0.7185 0.7185 0.6955 -1880.7501 -159.6729)">
				<stop  offset="0.2397" style="stop-color:#F89C1C"/>
				<stop  offset="0.872" style="stop-color:#F3D40E"/>
			</linearGradient>
			<path style="fill:url(#SVGID_92_);" d="M3.5,28.5c-0.7-0.7-1.1-1.5-0.9-2C2.9,25.6,4,25.6,4,25.6s0-0.7,0.4-1.1
				c0.2-0.2,0.7-0.4,1.1-0.4c0.4,0,0.7,0.2,1.1,0.4c2,1.3,3.1,5.5,3.1,5.5l0,0l-0.2,0.2l-0.2,0.2L9,30.7l0,0c-0.4,0-1.1-0.2-1.5-0.2
				C5.7,30.2,4.4,29.3,3.5,28.5z"/>
			
				<linearGradient id="SVGID_93_" gradientUnits="userSpaceOnUse" x1="-1178.985" y1="1488.3748" x2="-1176.7695" y2="1488.3748" gradientTransform="matrix(-0.6955 0.7185 0.7185 0.6955 -1880.7501 -159.6729)">
				<stop  offset="0.2397" style="stop-color:#F89C1C"/>
				<stop  offset="0.872" style="stop-color:#F3D40E"/>
			</linearGradient>
			<path style="opacity:0.5;fill:url(#SVGID_93_);enable-background:new    ;" d="M6.2,29.1C6.2,28.9,6,28.9,6.2,29.1
				c0-0.2,0-0.2,0-0.4h0.2c0.4,0,0.9,0.2,1.1,0.7c-0.4-0.4-0.7-0.9-1.1-1.5v-0.2h0.2c0.4,0.2,0.9,0.7,1.3,1.1
				c-0.2-0.2-0.4-0.7-0.7-0.9v-0.2h0.2c0.2,0.2,0.4,0.4,0.7,0.7c0.4,0.7,1.1,1.3,1.3,2.2L9,31.1l0,0c-0.7-0.7-1.5-1.1-2.2-1.5
				C6.6,29.3,6.4,29.3,6.2,29.1z"/>
			
				<linearGradient id="SVGID_94_" gradientUnits="userSpaceOnUse" x1="-1180.3163" y1="1483.7003" x2="-1175.3875" y2="1483.7003" gradientTransform="matrix(-0.6955 0.7185 0.7185 0.6955 -1880.7501 -159.6729)">
				<stop  offset="0.2397" style="stop-color:#F89C1C"/>
				<stop  offset="0.872" style="stop-color:#F3D40E"/>
			</linearGradient>
			<path style="opacity:0.5;fill:url(#SVGID_94_);enable-background:new    ;" d="M3.5,28.5c-0.7-0.7-1.1-1.5-0.9-2
				C2.9,25.6,4,25.6,4,25.6s0-1.5,1.5-1.5c0.4,0,0.7,0.2,1.1,0.4c-0.2,0-0.4,0-0.7,0c-0.4,0-0.9,0-1.1,0.4c-0.2,0.2-0.4,0.7-0.2,1.1
				c-0.2,0-0.7,0-0.9,0.2c-0.2,0.2-0.4,0.4-0.4,0.9c0,0.2,0,0.7,0.2,0.9C3.3,28,3.5,28.3,3.5,28.5z"/>
			
				<linearGradient id="SVGID_95_" gradientUnits="userSpaceOnUse" x1="-1177.8588" y1="1486.3147" x2="-1177.8588" y2="1484.0205" gradientTransform="matrix(-0.6955 0.7185 0.7185 0.6955 -1880.7501 -159.6729)">
				<stop  offset="0" style="stop-color:#F89C1C;stop-opacity:0"/>
				<stop  offset="0.5249" style="stop-color:#F3D40E;stop-opacity:0.5"/>
				<stop  offset="1" style="stop-color:#F89C1C;stop-opacity:0"/>
			</linearGradient>
			<path style="fill:url(#SVGID_95_);" d="M5.5,29.6c-0.7-0.2-1.1-0.7-1.5-1.1c-0.2-0.2-0.4-0.4-0.4-0.9c0-0.4,0-0.9,0.2-1.1
				c0.2-0.2,0.7-0.4,1.1-0.4c0-0.4,0-0.7,0.4-0.9C5.5,25,6,25,6.4,25c0.2,0,0.4,0.2,0.7,0.4c0.4,0.4,0.9,0.9,1.1,1.3
				c-0.2,0.2-0.7,0.2-0.9,0.2c-0.2,0-0.7,0-0.9,0.2c-0.2,0.2-0.2,0.4-0.4,0.7c0,0.2,0,0.7,0,0.9C5.7,28.9,5.7,29.3,5.5,29.6z"/>
			
				<linearGradient id="SVGID_96_" gradientUnits="userSpaceOnUse" x1="-1178.7002" y1="1485.8831" x2="-1175.3865" y2="1485.8831" gradientTransform="matrix(-0.6955 0.7185 0.7185 0.6955 -1880.7501 -159.6729)">
				<stop  offset="0" style="stop-color:#F89C1C;stop-opacity:0"/>
				<stop  offset="0.5249" style="stop-color:#F3D40E;stop-opacity:0.5"/>
				<stop  offset="1" style="stop-color:#F89C1C;stop-opacity:0"/>
			</linearGradient>
			<path style="fill:url(#SVGID_96_);" d="M3.5,28.5c-0.7-0.7-1.1-1.5-0.9-2C2.9,25.6,4,25.6,4,25.6s0-0.7,0.4-1.1
				c0,1.3,0.4,2.4,1.1,3.5c0.7,0.9,1.3,1.8,2.2,2.4C5.7,30.2,4.4,29.3,3.5,28.5z"/>
			
				<linearGradient id="SVGID_97_" gradientUnits="userSpaceOnUse" x1="-1178.7607" y1="1488.6949" x2="-1177.0397" y2="1488.6949" gradientTransform="matrix(-0.6955 0.7185 0.7185 0.6955 -1880.7501 -159.6729)">
				<stop  offset="0.2397" style="stop-color:#F89C1C"/>
				<stop  offset="0.872" style="stop-color:#F3D40E"/>
			</linearGradient>
			<path style="opacity:0.5;fill:url(#SVGID_97_);enable-background:new    ;" d="M7,29.6v-0.2h0.2c0.2,0,0.4,0.2,0.7,0.2
				c-0.2-0.2-0.4-0.4-0.7-0.9c0,0,0,0,0-0.2c0,0,0,0,0-0.2c0,0,0,0,0.2,0c0,0,0,0,0.2,0c0.2,0.2,0.4,0.4,0.7,0.7
				c0-0.2-0.2-0.4-0.2-0.7V28l0,0c0.4,0.7,0.9,1.3,1.3,2l-0.2,0.2c-0.7-0.2-1.3-0.7-2-0.9C7,29.6,7,29.6,7,29.6z"/>
		</g>
		<g>
			
				<linearGradient id="SVGID_98_" gradientUnits="userSpaceOnUse" x1="1.6687" y1="991.8824" x2="1.6687" y2="999.3284" gradientTransform="matrix(0.5357 0.8444 0.8444 -0.5357 -836.3049 565.2696)">
				<stop  offset="0.2397" style="stop-color:#F89C1C"/>
				<stop  offset="0.872" style="stop-color:#F3D40E"/>
			</linearGradient>
			<path style="fill:url(#SVGID_98_);" d="M6.2,35.7c-0.9,0.4-1.8,0.7-2,0.4c-0.9-0.4-0.7-1.5-0.7-1.5s-0.7,0-0.9-0.7
				c-0.2-0.2-0.2-0.7-0.2-1.3c0-0.4,0.2-0.7,0.7-0.9C4.9,30.2,9.2,30,9.2,30l0,0v0.2l0.2,0.4v0.2l0,0C9.2,31.3,9,32,8.8,32.2
				C8.1,34.2,7.3,35.3,6.2,35.7z"/>
			
				<linearGradient id="SVGID_99_" gradientUnits="userSpaceOnUse" x1="0.6535" y1="998.2859" x2="2.869" y2="998.2859" gradientTransform="matrix(0.5357 0.8444 0.8444 -0.5357 -836.3049 565.2696)">
				<stop  offset="0.2397" style="stop-color:#F89C1C"/>
				<stop  offset="0.872" style="stop-color:#F3D40E"/>
			</linearGradient>
			<path style="opacity:0.5;fill:url(#SVGID_99_);enable-background:new    ;" d="M7.3,33.5C7.3,33.5,7,33.5,7.3,33.5
				c-0.2,0-0.4,0-0.4,0v-0.2c0.2-0.4,0.4-0.7,0.9-1.1c-0.4,0.2-1.1,0.4-1.8,0.7H5.7v-0.2C6.2,32.2,6.6,32,7,31.8
				c-0.2,0-0.4,0.2-0.9,0.2H6v-0.2c0.2-0.2,0.4-0.4,0.7-0.4c0.9-0.4,1.5-0.7,2.4-0.9l0.4,0.7l0,0c-0.4,0.7-1.1,1.3-1.8,2
				C7.7,33.1,7.5,33.3,7.3,33.5z"/>
			
				<linearGradient id="SVGID_100_" gradientUnits="userSpaceOnUse" x1="-0.6777" y1="994.0252" x2="4.2511" y2="994.0252" gradientTransform="matrix(0.5357 0.8444 0.8444 -0.5357 -836.3049 565.2696)">
				<stop  offset="0.2397" style="stop-color:#F89C1C"/>
				<stop  offset="0.872" style="stop-color:#F3D40E"/>
			</linearGradient>
			<path style="opacity:0.5;fill:url(#SVGID_100_);enable-background:new    ;" d="M6.2,35.7c-0.9,0.4-1.8,0.7-2,0.4
				c-0.9-0.4-0.7-1.5-0.7-1.5s-1.5-0.2-1.1-2c0-0.4,0.2-0.7,0.7-0.9c-0.2,0.2-0.2,0.4-0.2,0.7c0,0.4,0,0.9,0,1.3
				c0.2,0.4,0.7,0.7,1.1,0.4c-0.2,0.2-0.2,0.7,0,0.9c0,0.2,0.4,0.7,0.7,0.7c0.2,0,0.7,0,0.9,0C5.7,35.9,6,35.9,6.2,35.7z"/>
			
				<linearGradient id="SVGID_101_" gradientUnits="userSpaceOnUse" x1="1.728" y1="996.4714" x2="1.728" y2="994.1772" gradientTransform="matrix(0.5357 0.8444 0.8444 -0.5357 -836.3049 565.2696)">
				<stop  offset="0" style="stop-color:#F89C1C;stop-opacity:0"/>
				<stop  offset="0.5249" style="stop-color:#F3D40E;stop-opacity:0.5"/>
				<stop  offset="1" style="stop-color:#F89C1C;stop-opacity:0"/>
			</linearGradient>
			<path style="fill:url(#SVGID_101_);" d="M7.7,34.2c-0.4,0.4-0.9,0.9-1.5,1.3c-0.2,0.2-0.7,0.2-0.9,0.2c-0.4,0-0.7-0.2-0.9-0.7
				c-0.2-0.4-0.2-0.7-0.2-1.1c-0.4,0-0.7-0.2-0.9-0.7c-0.2-0.2-0.2-0.7,0-1.1c0.2-0.2,0.4-0.4,0.4-0.4c0.4-0.4,1.1-0.7,1.5-0.7
				c0,0.2,0,0.7,0,0.9c0,0.2-0.2,0.7,0,0.9c0.2,0.2,0.4,0.4,0.7,0.4c0.2,0,0.7,0.2,0.9,0.2C7,34,7.5,34,7.7,34.2z"/>
			
				<linearGradient id="SVGID_102_" gradientUnits="userSpaceOnUse" x1="0.9383" y1="996.1337" x2="4.252" y2="996.1337" gradientTransform="matrix(0.5357 0.8444 0.8444 -0.5357 -836.3049 565.2696)">
				<stop  offset="0" style="stop-color:#F89C1C;stop-opacity:0"/>
				<stop  offset="0.5249" style="stop-color:#F3D40E;stop-opacity:0.5"/>
				<stop  offset="1" style="stop-color:#F89C1C;stop-opacity:0"/>
			</linearGradient>
			<path style="fill:url(#SVGID_102_);" d="M6.2,35.7c-0.9,0.4-1.8,0.7-2,0.4c-0.9-0.4-0.7-1.5-0.7-1.5s-0.7,0-0.9-0.7
				c1.1,0.4,2.4,0.4,3.5,0c1.1-0.4,2-0.9,2.9-1.5C8.1,34.2,7.3,35.3,6.2,35.7z"/>
			
				<linearGradient id="SVGID_103_" gradientUnits="userSpaceOnUse" x1="0.878" y1="998.8234" x2="2.5991" y2="998.8234" gradientTransform="matrix(0.5357 0.8444 0.8444 -0.5357 -836.3049 565.2696)">
				<stop  offset="0.2397" style="stop-color:#F89C1C"/>
				<stop  offset="0.872" style="stop-color:#F3D40E"/>
			</linearGradient>
			<path style="opacity:0.5;fill:url(#SVGID_103_);enable-background:new    ;" d="M7.9,32.9c0,0-0.2,0-0.2-0.2v-0.2
				c0.2-0.2,0.2-0.4,0.4-0.7C7.9,32,7.5,32,7.3,32.2c0,0,0,0-0.2,0c0,0,0,0-0.2,0c0,0,0,0,0-0.2l0,0c0.2-0.2,0.4-0.4,0.9-0.7
				c-0.2,0-0.4,0-0.9,0H6.6l0,0c0.7-0.4,1.5-0.7,2.2-0.9L9,30.9c-0.4,0.7-0.9,1.1-1.3,1.8C8.1,32.6,7.9,32.6,7.9,32.9z"/>
		</g>
		<g>
			
				<linearGradient id="SVGID_104_" gradientUnits="userSpaceOnUse" x1="8.79" y1="5.9396" x2="10.2098" y2="5.9396" gradientTransform="matrix(1 0 0 -1 0 36.6041)">
				<stop  offset="0.2397" style="stop-color:#F89C1C"/>
				<stop  offset="0.872" style="stop-color:#F3D40E"/>
			</linearGradient>
			<circle style="fill:url(#SVGID_104_);" cx="9.5" cy="30.7" r="0.7"/>
			<circle style="fill:#613B15;" cx="9.5" cy="30.7" r="0.4"/>
		</g>
	</g>
	<g>
		<path style="fill:none;stroke:#613B15;stroke-width:0.1498;stroke-miterlimit:10;" d="M7.3,32.2c0.7-0.7,1.3-1.1,2.2-1.5"/>
		<path style="fill:none;stroke:#613B15;stroke-width:0.1498;stroke-miterlimit:10;" d="M9.5,30.7c0.2,0.9,0.4,2,0.4,3.1"/>
		<path style="fill:none;stroke:#613B15;stroke-width:0.1498;stroke-miterlimit:10;" d="M9.7,30.4c0.9,0.4,1.8,0.9,2.9,0.9"/>
		<path style="fill:none;stroke:#613B15;stroke-width:0.1498;stroke-miterlimit:10;" d="M9.5,30.4c0.4-0.9,1.1-1.8,1.8-2.6"/>
		<path style="fill:none;stroke:#613B15;stroke-width:0.1498;stroke-miterlimit:10;" d="M9.5,30.4c-0.7-0.7-1.5-1.3-2.4-1.5"/>
		<path style="fill:none;stroke:#613B15;stroke-width:0.1498;stroke-miterlimit:10;" d="M9.2,30.9C9,31.5,8.6,32,8.1,32.4"/>
		<path style="fill:none;stroke:#613B15;stroke-width:0.1498;stroke-miterlimit:10;" d="M9.5,30.2c0-0.4-0.2-0.9-0.7-1.3"/>
		<path style="fill:none;stroke:#613B15;stroke-width:0.1498;stroke-miterlimit:10;" d="M9.7,30.4c0.4,0,0.9,0,1.3,0.2"/>
		<path style="fill:#613B15;" d="M7.5,32.2c0,0.2,0,0.2-0.2,0.2c-0.2,0-0.2,0-0.2-0.2C7,32,7,32,7.3,32C7.3,32,7.5,32,7.5,32.2z"/>
		<path style="fill:#613B15;" d="M8.6,32.4c0,0.2,0,0.2-0.2,0.2s-0.2,0-0.2-0.2c0-0.2,0-0.2,0.2-0.2L8.6,32.4z"/>
		<path style="fill:#613B15;" d="M10.1,33.5c0,0.2,0,0.2-0.2,0.2s-0.2,0-0.2-0.2s0-0.2,0.2-0.2S10.1,33.5,10.1,33.5z"/>
		<path style="fill:#613B15;" d="M11.4,30.7c0,0.2,0,0.2-0.2,0.2s-0.2,0-0.2-0.2s0-0.2,0.2-0.2S11.4,30.4,11.4,30.7z"/>
		<path style="fill:#613B15;" d="M12.7,31.5c0,0.2,0,0.2-0.2,0.2s-0.2,0-0.2-0.2c0-0.2,0-0.2,0.2-0.2S12.7,31.3,12.7,31.5z"/>
		<path style="fill:#613B15;" d="M9,28.9c0,0.2,0,0.2-0.2,0.2c-0.2,0-0.2,0-0.2-0.2c0-0.2,0-0.2,0.2-0.2C9,28.7,9,28.9,9,28.9z"/>
		<path style="fill:#613B15;" d="M7.3,28.9c0,0.2,0,0.2-0.2,0.2s-0.2,0-0.2-0.2c0-0.2,0-0.2,0.2-0.2C7.3,28.7,7.3,28.7,7.3,28.9z"/>
		<path style="fill:#613B15;" d="M11.4,27.8c0,0.2,0,0.2-0.2,0.2S11,28,11,27.8s0-0.2,0.2-0.2S11.4,27.6,11.4,27.8z"/>
	</g>
</g>
</svg>
