<svg xmlns="http://www.w3.org/2000/svg" xmlns:xlink="http://www.w3.org/1999/xlink" width="500" zoomAndPan="magnify" viewBox="0 0 375 374.999991" height="500" preserveAspectRatio="xMidYMid meet" version="1.0"><defs><clipPath id="6ce37ca7b3"><path d="M 45 13 L 333.84375 13 L 333.84375 364.84375 L 45 364.84375 Z M 45 13 " clip-rule="nonzero"/></clipPath></defs><rect x="-37.5" width="450" fill="#ffffff" y="-37.499999" height="449.999989" fill-opacity="1"/><rect x="-37.5" width="450" fill="#ffffff" y="-37.499999" height="449.999989" fill-opacity="1"/><g clip-path="url(#6ce37ca7b3)"><path fill="#326e51" d="M 155.214844 332.851562 C 155.226562 332.863281 155.246094 332.878906 155.261719 332.878906 C 155.339844 332.878906 155.390625 332.820312 155.390625 332.746094 C 155.390625 332.714844 155.378906 332.675781 155.359375 332.65625 C 147.378906 326.929688 139.5625 320.917969 131.902344 314.628906 C 125.003906 308.972656 118.046875 303.144531 114.292969 295.523438 C 114.246094 295.4375 114.1875 295.417969 114.085938 295.4375 C 114.050781 295.449219 114 295.46875 113.941406 295.496094 C 113.851562 295.523438 113.8125 295.574219 113.851562 295.671875 C 118.171875 305.023438 125.707031 312.105469 134.46875 318.496094 C 140.96875 323.226562 147.878906 328.023438 155.214844 332.851562 M 78.273438 289.449219 C 74.542969 271.484375 83.570312 252.933594 97.144531 241.539062 C 103.035156 236.59375 109.414062 232.480469 116.277344 229.214844 C 116.324219 229.1875 116.347656 229.15625 116.347656 229.109375 C 116.347656 229.023438 116.289062 228.972656 116.210938 228.972656 C 116.199219 228.972656 116.199219 228.972656 116.1875 228.972656 C 88.320312 238.917969 70.320312 259.9375 78.226562 291.417969 C 78.34375 291.890625 78.539062 292.332031 78.820312 292.738281 C 79.074219 293.09375 79.171875 293.050781 79.117188 292.605469 L 78.746094 289.71875 C 78.746094 289.671875 78.722656 289.632812 78.664062 289.632812 C 78.605469 289.632812 78.558594 289.632812 78.5 289.632812 C 78.363281 289.632812 78.292969 289.574219 78.273438 289.449219 Z M 271.398438 243.230469 C 277.789062 243.128906 283.730469 243.246094 289.203125 241.203125 C 299.390625 237.402344 306.125 227.761719 307.425781 217.078125 C 307.648438 215.183594 308.402344 208.257812 307.726562 207.738281 C 307.589844 207.621094 307.503906 207.660156 307.492188 207.84375 C 306.328125 225.902344 296.820312 238.203125 278.140625 239.621094 C 266.304688 240.503906 257.835938 240.609375 248.375 245.789062 C 247.742188 246.140625 247.769531 246.199219 248.445312 245.953125 C 252.898438 244.382812 256.464844 243.558594 259.175781 243.492188 C 263.257812 243.382812 267.324219 243.296875 271.398438 243.230469 Z M 156.503906 196.941406 C 152.609375 205.628906 142.167969 209.265625 133.328125 210.925781 C 107.988281 215.691406 71.765625 218.503906 73.460938 255.042969 C 73.460938 255.089844 73.476562 255.128906 73.507812 255.160156 C 73.519531 255.171875 73.535156 255.1875 73.554688 255.191406 C 73.613281 255.25 73.644531 255.238281 73.644531 255.132812 C 74.84375 221.09375 109.847656 221.273438 134.195312 215.753906 C 143.472656 213.640625 151.941406 208.195312 156.054688 199.34375 C 156.398438 198.589844 156.621094 197.800781 156.71875 197 C 156.777344 196.5 156.699219 196.480469 156.503906 196.941406 Z M 137.507812 188.195312 C 138.4375 183.640625 140.46875 171.292969 136.972656 169.21875 C 136.75 169.085938 136.660156 169.144531 136.679688 169.394531 C 137.140625 174.933594 136.601562 180.359375 135.054688 185.6875 C 135.035156 185.761719 134.960938 185.804688 134.890625 185.804688 C 134.800781 185.804688 134.714844 185.722656 134.714844 185.628906 L 134.714844 185.617188 C 135.5625 180.019531 135.71875 174.398438 135.191406 168.761719 C 135.171875 168.507812 135.015625 168.367188 134.773438 168.347656 C 133.882812 168.289062 133.042969 168.644531 132.230469 169.414062 C 128.792969 172.730469 126.898438 176.558594 126.558594 180.898438 C 126.097656 186.867188 129.242188 192.664062 129.871094 198.71875 C 129.890625 198.878906 129.988281 198.9375 130.140625 198.867188 C 135.898438 196.363281 142.777344 190.640625 143.996094 184.113281 C 144.839844 179.558594 141.835938 172.632812 139.835938 168.546875 C 139.570312 168 139.511719 168.015625 139.660156 168.621094 C 139.847656 169.359375 140.296875 170.039062 140.371094 170.753906 C 140.980469 176.824219 140.078125 182.65625 137.664062 188.246094 C 137.449219 188.742188 137.402344 188.722656 137.507812 188.195312 Z M 116.53125 181.414062 C 112.40625 185.527344 120.363281 189.507812 121.679688 181.667969 C 122.683594 175.699219 125.335938 170.578125 129.683594 166.289062 C 129.820312 166.152344 129.800781 166.046875 129.597656 165.996094 C 128.285156 165.683594 118.542969 179.414062 116.53125 181.414062 Z M 161.507812 182.246094 C 161.207031 182.234375 160.972656 182.1875 160.796875 182.117188 C 152.539062 178.503906 145.746094 173.078125 140.390625 165.832031 C 140.195312 165.566406 140.089844 165.597656 140.078125 165.9375 C 140.050781 166.601562 140.238281 167.316406 140.625 168.097656 C 143.214844 173.3125 145.269531 180.386719 148.246094 184.777344 C 154.328125 193.773438 162.007812 195.046875 172.195312 195.90625 C 172.460938 195.925781 172.65625 196.148438 172.65625 196.40625 C 172.65625 196.441406 172.640625 196.480469 172.640625 196.511719 C 166.1875 227.269531 129.734375 239.046875 104.707031 250.03125 C 89.777344 256.574219 80.09375 267.234375 78.335938 283.964844 C 78.1875 285.488281 78.355469 287.113281 78.871094 288.851562 C 78.917969 288.988281 78.941406 288.988281 78.949219 288.839844 C 79.484375 280.964844 82.117188 274.125 86.835938 268.304688 C 92.285156 261.589844 100.808594 256.75 109.09375 253.890625 C 122.707031 249.210938 130.777344 246.503906 140.734375 240.777344 C 156.925781 231.441406 171.609375 215.898438 173.988281 196.71875 C 174.007812 196.484375 174.140625 196.421875 174.347656 196.511719 L 176.089844 197.304688 C 176.300781 197.398438 176.417969 197.324219 176.429688 197.097656 C 177.433594 183.925781 178.664062 173.726562 168.171875 166.027344 C 160.179688 160.164062 151.09375 159.058594 140.910156 162.730469 C 140.804688 162.761719 140.746094 162.867188 140.746094 162.96875 C 140.746094 163.015625 140.761719 163.0625 140.78125 163.113281 C 146.097656 171.183594 152.410156 177.78125 161.546875 182.046875 C 161.890625 182.1875 161.867188 182.257812 161.507812 182.246094 Z M 139.132812 163.757812 C 139.132812 161.644531 137.414062 159.925781 135.300781 159.925781 C 133.183594 159.925781 131.46875 161.644531 131.46875 163.757812 C 131.46875 165.871094 133.183594 167.589844 135.300781 167.589844 C 137.414062 167.589844 139.132812 165.871094 139.132812 163.757812 Z M 98.367188 164.792969 C 106.359375 163.398438 114.535156 162.273438 122.890625 161.390625 C 125.941406 161.078125 128.304688 161.0625 129.9375 161.375 C 129.949219 161.390625 129.957031 161.375 129.96875 161.363281 C 129.988281 161.304688 130.003906 161.246094 130.015625 161.175781 C 130.0625 161.070312 130.015625 161 129.898438 160.980469 C 123.089844 159.515625 116.210938 158.585938 109.269531 158.214844 C 108.929688 158.195312 108.929688 158.167969 109.257812 158.121094 C 115.308594 157.339844 122.234375 158.746094 128.363281 159.15625 C 128.585938 159.167969 128.617188 159.097656 128.46875 158.933594 C 124.132812 154.40625 118.992188 151.816406 112.628906 151.121094 C 100.429688 149.804688 92.660156 155.21875 84.363281 163.300781 C 84.214844 163.453125 84.226562 163.570312 84.421875 163.660156 C 94.601562 168.828125 99.351562 176.980469 111.222656 173.472656 C 118.203125 171.40625 122.5 164.65625 129.898438 163.140625 C 130.359375 163.046875 130.359375 162.964844 129.886719 162.90625 C 128.273438 162.703125 126.363281 162.976562 125.101562 163.023438 C 116.355469 163.335938 107.445312 164 98.402344 164.996094 C 98.34375 164.996094 98.296875 164.949219 98.296875 164.890625 C 98.296875 164.851562 98.316406 164.804688 98.367188 164.792969 Z M 160.589844 145.671875 C 159.066406 145.542969 157.765625 146.023438 156.683594 147.109375 C 151.363281 152.453125 148.042969 155.753906 142.460938 159.558594 C 141.777344 160.015625 141.820312 160.09375 142.578125 159.792969 C 146.175781 158.375 149.941406 155.566406 152.890625 153.546875 C 155.820312 151.535156 158.128906 150.792969 161.457031 150.378906 C 161.652344 150.359375 161.8125 150.273438 161.957031 150.125 C 163.578125 148.339844 163.464844 145.90625 160.589844 145.671875 Z M 172.296875 146.914062 C 171.511719 147.300781 170.65625 147.4375 169.765625 147.332031 C 169.71875 147.332031 169.6875 147.320312 169.648438 147.320312 C 169.082031 147.320312 168.613281 147.78125 168.613281 148.355469 C 168.613281 148.472656 168.640625 148.589844 168.671875 148.691406 C 169.34375 150.613281 170.390625 151.875 171.84375 152.492188 C 178.058594 155.117188 181.519531 147.683594 178.070312 143.328125 C 175.15625 139.644531 168.316406 141.007812 168.804688 146.558594 C 168.828125 146.746094 168.921875 146.824219 169.097656 146.8125 L 172.246094 146.695312 C 172.597656 146.679688 172.621094 146.753906 172.296875 146.914062 Z M 108.507812 139.429688 C 110.597656 141.195312 126.847656 156.984375 128.078125 155.972656 C 128.226562 155.855469 128.214844 155.753906 128.0625 155.648438 C 120.488281 150.605469 117.261719 145.53125 113.304688 137.355469 C 110.734375 132.039062 103.40625 135.078125 108.507812 139.429688 Z M 100.152344 125.53125 C 68.046875 140.714844 56.046875 174.105469 63.238281 207.511719 C 63.550781 208.960938 64.410156 212.320312 65.828125 217.578125 C 65.875 217.785156 65.921875 217.785156 65.945312 217.566406 C 65.964844 217.449219 65.960938 217.316406 65.933594 217.207031 C 64.15625 208.214844 64.078125 198.945312 64.957031 189.703125 C 67.292969 164.988281 79.289062 140.050781 100.222656 125.65625 C 100.722656 125.324219 100.699219 125.289062 100.152344 125.53125 Z M 145.777344 125.5625 C 146.578125 125.425781 147.996094 123.566406 148.238281 122.777344 C 148.308594 122.589844 148.238281 122.496094 148.03125 122.535156 C 147.527344 122.609375 146.285156 124.847656 145.914062 125.394531 C 145.855469 125.464844 145.765625 125.511719 145.675781 125.511719 C 145.511719 125.511719 145.382812 125.382812 145.382812 125.21875 C 145.382812 125.199219 145.382812 125.1875 145.382812 125.160156 L 147.308594 115.183594 C 147.320312 115.171875 147.320312 115.15625 147.320312 115.152344 C 147.320312 115.035156 147.230469 114.929688 147.097656 114.929688 C 147.078125 114.929688 147.054688 114.929688 147.027344 114.941406 C 146.585938 115.09375 145.238281 123.6875 145.050781 124.855469 C 145.050781 124.886719 145.050781 124.925781 145.050781 124.957031 C 145.050781 125.296875 145.328125 125.578125 145.667969 125.578125 C 145.707031 125.5625 145.746094 125.5625 145.777344 125.5625 Z M 144.769531 111.8125 L 145.167969 111.667969 C 145.308594 111.625 145.40625 111.53125 145.464844 111.402344 C 145.953125 110.203125 146.617188 109.105469 147.464844 108.089844 C 148.132812 107.289062 148.21875 107.347656 147.71875 108.265625 C 147.144531 109.300781 146.578125 110.335938 146 111.355469 C 145.910156 111.53125 145.921875 111.695312 146.023438 111.859375 L 147.621094 114.238281 C 147.75 114.449219 147.886719 114.449219 148.035156 114.257812 C 148.375 113.828125 148.816406 113.640625 149.363281 113.699219 C 149.605469 113.730469 149.820312 113.679688 150.015625 113.535156 C 151.558594 112.425781 152.460938 110.921875 152.722656 109.054688 C 152.753906 108.84375 152.722656 108.644531 152.628906 108.472656 C 151.328125 105.859375 148.695312 103.265625 145.570312 103.546875 C 138.113281 104.230469 138.777344 114.082031 146.277344 114.441406 C 146.707031 114.46875 146.960938 114.277344 147.007812 113.875 C 147.035156 113.667969 146.960938 113.492188 146.785156 113.359375 L 144.757812 111.96875 C 144.652344 111.910156 144.652344 111.851562 144.769531 111.8125 Z M 168.59375 112.988281 C 169.152344 109.027344 169.796875 105.011719 170.519531 100.957031 C 170.613281 100.441406 170.417969 100.292969 169.941406 100.496094 C 163.84375 103.058594 162.4375 108.488281 161.730469 114.664062 C 161.710938 114.859375 161.597656 115.019531 161.429688 115.125 C 157.953125 117.214844 154.328125 119.09375 151.324219 121.664062 C 149.453125 123.257812 147.640625 124.894531 145.902344 126.589844 C 145.816406 126.675781 145.714844 126.722656 145.601562 126.722656 C 145.453125 126.722656 145.308594 126.648438 145.230469 126.527344 C 141.488281 120.988281 135.488281 116.757812 129.761719 113.398438 C 129.585938 113.296875 129.421875 113.316406 129.289062 113.476562 C 121.816406 121.660156 117.164062 130.25 120.613281 141.644531 C 122.566406 148.113281 127.179688 155.792969 133.425781 159.195312 C 133.984375 159.496094 134.214844 159.332031 134.109375 158.695312 C 132.183594 147.496094 132.035156 136.273438 133.667969 125.023438 C 133.679688 124.976562 133.699219 124.976562 133.746094 124.992188 C 133.789062 125.023438 133.816406 125.0625 133.816406 125.121094 C 133.640625 136.027344 134.082031 147.011719 137.441406 157.53125 C 137.46875 157.613281 137.53125 157.660156 137.617188 157.660156 C 137.707031 157.660156 137.792969 157.589844 137.792969 157.484375 L 137.792969 157.472656 C 137.792969 156.742188 137.773438 156.097656 137.980469 155.382812 C 138.925781 152.15625 139.574219 149.089844 139.953125 146.179688 C 140.441406 142.359375 140.84375 137.851562 141.183594 132.65625 C 141.253906 131.679688 141.289062 131.679688 141.320312 132.65625 C 141.542969 140.367188 140.742188 147.371094 139.132812 154.886719 C 139.074219 155.140625 139.167969 155.238281 139.425781 155.140625 C 139.726562 155.050781 140.03125 155.050781 140.3125 155.167969 C 140.566406 155.273438 140.625 155.433594 140.488281 155.679688 L 140.148438 156.246094 C 140.136719 156.28125 140.121094 156.304688 140.121094 156.339844 C 140.121094 156.441406 140.214844 156.535156 140.316406 156.535156 C 140.351562 156.535156 140.390625 156.519531 140.421875 156.515625 C 150.378906 150.371094 151.433594 141.050781 147.425781 130.75 C 147.273438 130.351562 147.351562 129.878906 147.347656 129.460938 C 147.347656 129.375 147.367188 129.371094 147.4375 129.429688 C 147.46875 129.453125 147.507812 129.5 147.542969 129.546875 C 147.621094 129.625 147.703125 129.636719 147.808594 129.566406 C 152.8125 126.023438 157.042969 122.992188 162.5625 121.289062 C 162.738281 121.230469 162.859375 121.289062 162.957031 121.449219 C 163.902344 123.195312 166.128906 127.503906 165.828125 129.410156 C 165.804688 129.585938 165.875 129.628906 166.023438 129.558594 C 167.265625 129 169.855469 127.898438 173.769531 126.246094 C 186.347656 120.917969 183.746094 105.824219 173.851562 99.726562 C 173.839844 99.714844 173.808594 99.699219 173.78125 99.699219 C 173.675781 99.6875 173.585938 99.757812 173.574219 99.863281 C 173.574219 99.882812 173.574219 99.921875 173.585938 99.941406 C 175.039062 104.335938 175.714844 108.6875 174.339844 113.25 C 173.710938 115.351562 172.96875 118.25 171.707031 120.394531 C 171.066406 121.503906 170.996094 121.449219 171.515625 120.277344 C 174.328125 113.925781 175.527344 109.371094 173.441406 103.019531 C 173.089844 101.941406 173.046875 101.082031 172.0625 100.3125 C 171.992188 100.253906 171.902344 100.222656 171.808594 100.222656 C 171.621094 100.222656 171.457031 100.351562 171.414062 100.519531 C 170.300781 104.632812 169.386719 108.78125 168.707031 112.964844 C 168.140625 116.414062 168.09375 116.425781 168.59375 112.988281 Z M 151.042969 102.707031 C 157.640625 106.460938 161.496094 102.21875 166.941406 99.394531 C 167.195312 99.257812 167.175781 99.1875 166.882812 99.199219 C 163.179688 99.257812 159.527344 98.847656 155.941406 97.988281 C 154.492188 97.636719 153.429688 97.546875 152.746094 97.695312 C 150.730469 98.191406 148.367188 101.210938 151.042969 102.707031 Z M 180.335938 101.496094 C 180.347656 101.453125 180.367188 101.394531 180.378906 101.335938 C 180.453125 101.125 180.574219 101.066406 180.777344 101.171875 C 182.75 102.195312 184.84375 102.578125 187.050781 102.335938 C 194.613281 101.492188 201.199219 98.53125 206.808594 93.441406 C 206.957031 93.304688 206.9375 93.199219 206.75 93.113281 C 206.632812 93.070312 206.527344 93.101562 206.425781 93.207031 C 199.675781 99.597656 189.476562 103.539062 180.210938 100.578125 C 179.976562 100.507812 179.605469 100.519531 179.117188 100.625 C 178.929688 100.65625 178.761719 100.625 178.597656 100.519531 C 177.425781 99.734375 176.167969 99.128906 174.824219 98.699219 C 174.183594 98.492188 174.140625 98.582031 174.671875 98.992188 C 178.050781 101.464844 181.109375 104.277344 183.847656 107.398438 C 184.941406 108.65625 185.8125 109.429688 186.472656 109.734375 C 191.996094 112.308594 193.355469 106.332031 188.703125 104.925781 C 185.867188 104.066406 183.105469 103 180.433594 101.71875 C 180.335938 101.671875 180.300781 101.601562 180.335938 101.496094 Z M 210.648438 90.707031 C 210.667969 90.617188 210.679688 90.519531 210.679688 90.425781 C 210.679688 89.855469 210.285156 89.371094 209.738281 89.230469 L 209.054688 89.066406 C 208.960938 89.046875 208.867188 89.035156 208.761719 89.035156 C 208.203125 89.035156 207.707031 89.417969 207.578125 89.976562 L 207.382812 90.777344 C 207.355469 90.855469 207.347656 90.96875 207.347656 91.058594 C 207.347656 91.632812 207.746094 92.125 208.292969 92.257812 L 208.976562 92.417969 C 209.066406 92.4375 209.164062 92.453125 209.269531 92.453125 C 209.828125 92.453125 210.324219 92.054688 210.453125 91.507812 Z M 186.296875 94.808594 C 183.660156 95.933594 180.894531 96.445312 178.019531 96.347656 C 177.824219 96.335938 177.765625 96.421875 177.828125 96.601562 C 177.992188 97.046875 187.179688 97.019531 188.25 96.871094 C 188.328125 96.855469 188.410156 96.855469 188.484375 96.882812 C 188.566406 96.902344 188.644531 96.941406 188.703125 97 C 188.808594 97.117188 188.78125 97.195312 188.625 97.234375 C 184.546875 98.066406 180.445312 98.179688 176.324219 97.515625 C 176.089844 97.480469 175.882812 97.527344 175.734375 97.644531 C 175.570312 97.761719 175.597656 97.839844 175.777344 97.878906 C 176.507812 98.015625 177.613281 98.339844 179.109375 98.855469 C 186.882812 101.515625 201.089844 95.570312 203.976562 87.445312 C 203.992188 87.414062 203.992188 87.375 203.992188 87.328125 C 203.992188 87.167969 203.859375 87.015625 203.699219 87.003906 C 199.402344 86.652344 195.160156 86.867188 190.957031 87.628906 C 185.449219 88.617188 181.722656 91.597656 177.472656 95.425781 C 177.398438 95.484375 177.414062 95.515625 177.503906 95.515625 C 180.445312 95.484375 183.359375 95.179688 186.238281 94.613281 C 186.886719 94.480469 186.894531 94.554688 186.296875 94.808594 Z M 196.421875 126.597656 C 224.601562 127.972656 252.21875 116.308594 257.042969 85.351562 C 257.042969 85.28125 256.984375 85.222656 256.914062 85.222656 C 256.855469 85.222656 256.808594 85.253906 256.78125 85.300781 C 252.148438 111.023438 223.554688 125.347656 199.890625 125.894531 C 197.703125 125.941406 195.511719 126.03125 193.304688 126.1875 C 192.769531 126.21875 192.769531 126.273438 193.304688 126.335938 C 194.351562 126.460938 195.386719 126.550781 196.421875 126.597656 Z M 250.679688 77.652344 C 249.050781 98.679688 227.808594 107.980469 210.511719 112.964844 C 209.742188 113.183594 209.742188 113.230469 210.542969 113.105469 C 227.046875 110.433594 242.765625 103.339844 249.234375 86.738281 C 249.78125 85.320312 251.660156 78.65625 250.816406 77.621094 C 250.738281 77.515625 250.691406 77.535156 250.679688 77.652344 Z M 180.21875 77.757812 C 177.863281 81.414062 175.910156 85.292969 174.375 89.371094 C 174.082031 90.152344 174.210938 90.871094 173.652344 91.753906 C 172.511719 93.53125 172.609375 93.578125 173.90625 91.90625 C 175.933594 89.3125 178.375 87.230469 180.433594 84.621094 C 180.570312 84.445312 180.628906 84.472656 180.59375 84.707031 C 180.582031 84.753906 180.5625 84.8125 180.5625 84.882812 C 180.535156 84.988281 180.472656 85.089844 180.375 85.207031 C 178.296875 87.519531 176.402344 89.984375 174.660156 92.585938 C 174.640625 92.621094 174.628906 92.664062 174.613281 92.71875 C 174.601562 92.855469 174.707031 92.996094 174.847656 93.015625 C 174.894531 93.015625 174.941406 93.015625 174.984375 92.992188 C 182.195312 90.132812 188.835938 85.460938 190.019531 77.019531 C 190.429688 74.117188 190.820312 71.191406 191.230469 68.261719 C 191.25 68.066406 191.171875 67.96875 190.976562 67.980469 C 181.507812 68.410156 175.285156 73.117188 172.273438 82.070312 C 171.054688 85.695312 170.714844 89.320312 171.28125 92.9375 C 171.316406 93.191406 171.375 93.191406 171.457031 92.953125 C 173.3125 87.285156 176.195312 82.183594 180.101562 77.664062 C 180.542969 77.164062 180.582031 77.191406 180.21875 77.757812 Z M 160.871094 78.5 C 163.578125 84.140625 166.5625 89.640625 169.804688 94.984375 C 169.980469 95.261719 170.027344 95.238281 169.953125 94.925781 C 169.597656 93.324219 169.167969 92.035156 169.230469 90.367188 C 169.582031 81.890625 167.792969 74.816406 160.238281 69.914062 C 157.871094 68.378906 154.882812 67 153.582031 64.46875 C 153.464844 64.226562 153.328125 64.214844 153.164062 64.433594 C 144.164062 76.722656 145.960938 96.875 164.792969 97.925781 C 165.132812 97.945312 165.179688 97.832031 164.957031 97.574219 C 159.484375 91.417969 156.015625 84.25 154.570312 76.097656 C 154.453125 75.445312 154.523438 75.433594 154.746094 76.039062 C 157.558594 83.632812 161.527344 91.886719 168.125 96.363281 C 168.347656 96.511719 168.417969 96.453125 168.316406 96.210938 C 167.851562 95.074219 167.632812 93.902344 167.128906 92.820312 C 166.316406 91.03125 160.601562 79.488281 160.777344 78.511719 C 160.785156 78.421875 160.816406 78.421875 160.871094 78.5 Z M 163.921875 32.410156 C 108.332031 47.917969 66.257812 93.871094 52.300781 149.210938 C 51.265625 153.3125 50.476562 156.261719 49.902344 158.050781 C 48.363281 162.996094 48.441406 163.035156 50.15625 158.136719 C 62.378906 123.195312 85.808594 94.050781 122.589844 83.839844 C 122.796875 83.78125 122.960938 83.632812 123.046875 83.445312 C 131.394531 63.210938 145.441406 44.566406 164.046875 32.683594 C 164.078125 32.664062 164.089844 32.636719 164.105469 32.605469 C 164.136719 32.519531 164.089844 32.441406 164.011719 32.410156 C 163.980469 32.398438 163.949219 32.398438 163.921875 32.410156 Z M 259.828125 117.585938 C 259.769531 117.566406 259.742188 117.507812 259.742188 117.453125 C 259.742188 117.371094 259.789062 117.3125 259.859375 117.3125 C 262.230469 117.160156 263.941406 116.925781 264.96875 116.601562 C 269.082031 115.347656 274.320312 113.394531 278.0625 113.269531 C 284.175781 113.046875 289.902344 117.03125 293.988281 121.175781 C 296.058594 123.277344 296.441406 126.160156 293.304688 127.484375 C 293.117188 127.574219 292.933594 127.554688 292.769531 127.4375 C 286.671875 123.414062 282.808594 116.648438 274.433594 117.636719 C 269.757812 118.191406 264.324219 119.296875 259.828125 117.585938 Z M 262.175781 132.421875 C 267.183594 135.28125 272.304688 137.902344 277.554688 140.285156 C 278.355469 140.550781 282.539062 141.878906 282.851562 142.398438 C 283.003906 142.652344 282.957031 142.839844 282.703125 142.976562 L 282.136719 143.246094 C 281.707031 143.453125 281.726562 143.582031 282.207031 143.617188 C 283.90625 143.753906 285.527344 143.558594 287.121094 143.035156 C 287.609375 142.875 287.683594 142.976562 287.3125 143.335938 C 286.613281 144.019531 285.8125 144.476562 284.871094 144.722656 C 284.683594 144.769531 284.53125 144.871094 284.414062 145.023438 C 284.195312 145.300781 283.925781 145.433594 283.613281 145.417969 C 282.847656 145.40625 282.78125 145.628906 283.394531 146.070312 C 284.058594 146.570312 284.824219 146.835938 285.683594 146.871094 C 285.773438 146.882812 285.8125 146.929688 285.789062 147.019531 C 285.761719 147.066406 285.753906 147.109375 285.730469 147.15625 C 285.714844 147.183594 285.710938 147.203125 285.671875 147.214844 L 282.546875 147.691406 C 282.339844 147.722656 282.128906 147.703125 281.929688 147.644531 L 280.335938 147.109375 C 279.949219 146.980469 279.800781 147.125 279.859375 147.519531 L 280.054688 148.691406 C 280.101562 148.945312 280.007812 149.015625 279.773438 148.867188 C 279.109375 148.425781 279.613281 147.332031 278.402344 147.078125 C 278.136719 147.019531 278.042969 147.125 278.136719 147.371094 L 278.488281 148.375 C 278.578125 148.628906 278.511719 148.671875 278.277344 148.550781 C 277.476562 148.074219 277.757812 146.667969 276.636719 146.746094 C 276.253906 146.765625 276.175781 146.933594 276.398438 147.234375 C 276.527344 147.410156 276.515625 147.574219 276.378906 147.753906 C 276.1875 147.976562 276.039062 147.964844 275.914062 147.695312 L 275.207031 146.210938 C 275.0625 145.898438 274.894531 145.875 274.6875 146.152344 L 273.828125 147.3125 C 273.476562 147.789062 273.324219 147.730469 273.382812 147.148438 C 273.417969 146.734375 273.558594 146.324219 273.792969 145.964844 C 273.957031 145.699219 273.898438 145.515625 273.597656 145.417969 L 273.109375 145.257812 C 272.933594 145.210938 272.796875 145.257812 272.695312 145.40625 C 272.402344 145.847656 271.925781 145.914062 271.230469 145.640625 C 271.242188 145.640625 271.242188 145.640625 271.242188 145.640625 C 271.09375 145.582031 271.023438 145.433594 271.082031 145.289062 C 271.335938 144.625 271.113281 144.175781 270.417969 143.894531 C 270.148438 143.792969 269.988281 143.882812 269.941406 144.164062 C 269.894531 144.488281 269.734375 144.695312 269.464844 144.773438 C 269.269531 144.832031 269.167969 144.761719 269.128906 144.554688 L 268.886719 142.789062 C 268.839844 142.40625 268.644531 142.300781 268.296875 142.488281 L 267.46875 142.9375 C 267.128906 143.113281 266.96875 143.023438 266.96875 142.640625 L 266.96875 141.320312 C 266.96875 141.097656 266.851562 140.992188 266.628906 141.019531 L 265.546875 141.167969 C 265.371094 141.195312 265.300781 141.125 265.316406 140.960938 L 265.371094 139.972656 C 265.386719 139.75 265.28125 139.679688 265.082031 139.777344 L 264.5 140.015625 C 264.089844 140.191406 263.988281 140.074219 264.164062 139.679688 L 264.441406 139.015625 C 264.617188 138.617188 264.488281 138.46875 264.070312 138.574219 L 263.363281 138.734375 C 263.0625 138.808594 262.933594 138.691406 262.976562 138.398438 L 263.09375 137.582031 C 263.140625 137.304688 263.023438 137.167969 262.742188 137.167969 L 262.183594 137.167969 C 261.828125 137.167969 261.722656 137.015625 261.90625 136.703125 C 262.171875 136.230469 262.019531 135.976562 261.441406 135.9375 C 261.164062 135.921875 261.058594 135.773438 261.128906 135.496094 C 261.222656 135.144531 261.128906 134.914062 260.863281 134.785156 C 260.699219 134.707031 260.5625 134.597656 260.464844 134.445312 L 258.234375 131.113281 C 258.070312 130.875 258.117188 130.816406 258.382812 130.917969 Z M 200.347656 151.632812 L 199.9375 151.691406 C 199.921875 151.707031 199.921875 151.707031 199.917969 151.707031 C 199.929688 151.707031 199.929688 151.707031 199.9375 151.691406 Z M 284.273438 173.761719 C 282.300781 171.972656 282.089844 170 283.667969 167.839844 C 283.90625 167.511719 283.992188 167.546875 283.933594 167.941406 C 283.476562 170.648438 284.507812 172.738281 287.1875 172.960938 C 289.789062 173.179688 293.167969 169.648438 295.0625 173.851562 C 295.164062 174.085938 295.09375 174.210938 294.855469 174.269531 C 293.039062 174.640625 286.171875 175.464844 284.273438 173.761719 Z M 250.542969 328.589844 C 257.988281 333.59375 270.597656 343.050781 268.113281 353.65625 C 267.683594 355.464844 262.027344 356.871094 260.308594 357.464844 C 260.113281 357.523438 259.996094 357.464844 259.957031 357.257812 C 259.820312 356.363281 260.0625 355.347656 260.050781 354.640625 C 259.828125 345.484375 255.390625 336.136719 250.398438 328.738281 C 250.175781 328.433594 250.222656 328.375 250.542969 328.589844 Z M 241.59375 214.832031 C 249.234375 218.210938 255.8125 220.839844 261.304688 222.71875 C 269.0625 225.386719 276.789062 222.738281 277.496094 213.574219 C 277.925781 207.941406 276.664062 205.375 283.140625 203.832031 C 284.363281 203.539062 285.566406 203.136719 286.765625 202.609375 C 279.65625 202.226562 274.433594 197.789062 271.359375 191.644531 C 271.257812 191.4375 271.328125 191.351562 271.550781 191.402344 C 277.785156 192.722656 284.570312 189.40625 289.007812 187.464844 C 290.84375 186.664062 292.503906 186.976562 294 188.398438 C 292.84375 184.648438 291.074219 182.519531 292.523438 178.394531 C 292.671875 177.933594 293.058594 177.582031 293.527344 177.464844 C 296.859375 176.589844 302.507812 175.453125 302.6875 171.292969 C 302.765625 169.492188 301.363281 167.550781 300.390625 166.066406 C 296.558594 160.105469 294.097656 153.34375 293.566406 146.558594 C 293.136719 141.085938 296.316406 135.027344 298.511719 129.96875 C 301.707031 122.660156 302.921875 114.859375 302.179688 106.566406 C 300.820312 91.207031 290.3125 77.855469 273.632812 79.070312 C 266.835938 79.570312 266.070312 83.136719 264.261719 89.386719 C 263.667969 91.417969 263.089844 93.453125 262.507812 95.472656 C 257.65625 112.488281 243.285156 124.996094 226.917969 130.425781 C 221.027344 132.390625 214.664062 133.945312 207.824219 135.105469 C 209.078125 137.824219 209.566406 140.550781 209.300781 143.304688 C 209.007812 146.335938 204.851562 142.816406 203.808594 141.644531 C 201.738281 139.292969 200.289062 137.796875 199.46875 137.148438 C 188.75 138.566406 196.480469 148.367188 200.359375 151.632812 C 202.273438 153.117188 204.414062 154.132812 206.757812 154.679688 C 209.078125 155.1875 206.175781 156.027344 205.5 156 C 208.8125 159.285156 211.449219 162.339844 213.445312 165.152344 C 217.839844 171.378906 219.25 182.199219 212.261719 187.464844 C 201.992188 195.179688 192.785156 178.53125 203.058594 173.246094 C 203.09375 173.21875 203.132812 173.21875 203.152344 173.21875 C 203.253906 173.21875 203.339844 173.304688 203.339844 173.410156 C 203.339844 173.453125 203.3125 173.511719 203.269531 173.546875 C 200.371094 176.089844 199.226562 180.132812 200.972656 183.613281 C 202.792969 187.238281 207.289062 187.667969 210.425781 185.585938 C 215.398438 182.265625 214.085938 174.925781 211.136719 170.742188 C 207.335938 165.339844 201.601562 161.332031 196.570312 157.140625 C 193.667969 154.730469 191.273438 152.226562 188.847656 149.484375 C 188.710938 149.324219 188.613281 149.347656 188.59375 149.570312 C 187.734375 157.582031 188.058594 165.554688 189.535156 173.460938 C 191.328125 183.007812 193.207031 191.769531 193.117188 202.128906 C 192.835938 232.96875 175.195312 253.574219 146.246094 262.050781 C 139.75 263.960938 133.210938 265.753906 126.636719 267.429688 C 122.851562 268.390625 118.882812 270.15625 114.742188 272.726562 C 100.722656 281.425781 99.703125 297.710938 109.425781 310.066406 C 109.445312 310.101562 109.496094 310.125 109.554688 310.125 C 109.640625 310.125 109.703125 310.054688 109.703125 309.964844 C 109.703125 309.945312 109.703125 309.90625 109.683594 309.886719 C 102.273438 298.0625 103.015625 285.285156 114.644531 276.761719 C 127.757812 267.140625 146.507812 266.804688 161.859375 270.648438 C 178.363281 274.796875 193.246094 283.625 206.054688 294.539062 C 226.109375 311.648438 245.199219 333.757812 256.09375 357.945312 C 256.117188 358.003906 256.136719 358.082031 256.136719 358.152344 C 256.136719 358.394531 255.976562 358.597656 255.753906 358.660156 C 243.070312 362.273438 230.140625 364.304688 216.960938 364.738281 C 216.824219 364.738281 216.707031 364.636719 216.707031 364.5 C 215.964844 351.105469 210.921875 339.621094 201.609375 330.046875 C 194.289062 322.515625 186.394531 316.25 177.914062 311.238281 C 176.226562 310.238281 176.207031 310.289062 177.84375 311.371094 C 196.058594 323.34375 213.558594 341.511719 215.125 364.578125 C 215.140625 364.785156 215.046875 364.890625 214.832031 364.890625 L 211.886719 364.890625 C 211.644531 364.890625 211.46875 364.773438 211.363281 364.539062 C 205.371094 350.261719 189.25 338.597656 176.136719 329.742188 C 161.320312 319.726562 146.148438 310.277344 130.601562 301.386719 C 125.890625 298.691406 120.714844 295.289062 115.726562 292.292969 C 114.085938 291.304688 114.066406 291.351562 115.640625 292.425781 C 130.601562 302.5625 145.523438 312.75 160.421875 322.972656 C 170.246094 329.722656 179.574219 337.0625 188.4375 345.019531 C 194.164062 350.167969 200.175781 356.742188 202.664062 364.15625 C 202.792969 364.539062 202.648438 364.714844 202.261719 364.675781 C 151.667969 360.023438 106.9375 333.957031 78.003906 292.527344 C 73.714844 286.386719 68.652344 278.582031 65.042969 271.675781 C 47.195312 237.582031 41.523438 201.300781 47.976562 162.8125 C 59.847656 92.125 111.617188 32.398438 183.027344 16.972656 C 214.867188 10.09375 246.871094 13.710938 272.5625 34.734375 C 272.597656 34.765625 272.621094 34.804688 272.621094 34.851562 C 272.621094 34.921875 272.5625 34.980469 272.492188 34.992188 C 258.832031 36.546875 245.847656 41.949219 234.53125 49.617188 C 234.175781 49.851562 234.195312 49.882812 234.589844 49.734375 C 237.167969 48.679688 239.746094 47.632812 242.347656 46.636719 C 266.660156 37.226562 294.46875 37.65625 312.972656 58.285156 C 325.578125 72.328125 328.0625 91.597656 321.484375 109.285156 C 317.945312 118.820312 312.515625 127.3125 307.636719 136.175781 C 301.445312 147.382812 304.023438 160.28125 314 168.234375 C 323.363281 175.707031 333.503906 182.460938 333.523438 196.054688 C 333.535156 200.46875 332.488281 204.699219 330.386719 208.773438 C 330.121094 209.292969 330.027344 209.273438 330.121094 208.679688 C 330.398438 206.789062 330.816406 204.746094 330.902344 203.097656 C 331.472656 189.449219 321.398438 184.835938 310.816406 180.308594 C 310.785156 180.292969 310.757812 180.292969 310.726562 180.292969 C 310.609375 180.292969 310.519531 180.386719 310.519531 180.503906 C 310.519531 180.5625 310.53125 180.605469 310.578125 180.640625 C 314.605469 185.253906 318.171875 190.246094 321.230469 195.660156 C 333.355469 217.003906 326.363281 246.941406 297.554688 248.105469 C 297.195312 248.125 297.152344 248.015625 297.40625 247.753906 C 310.296875 235.78125 313.015625 218.027344 307.128906 201.835938 C 307.050781 201.601562 306.996094 201.601562 306.992188 201.863281 C 306.917969 204.496094 308.648438 207.179688 308.636719 210.179688 C 308.566406 227.789062 300.144531 246.640625 280.132812 248.199219 C 271.789062 248.847656 263.140625 247.460938 255.253906 251.132812 C 249.609375 253.753906 245.828125 258.121094 243.902344 264.226562 C 239.445312 278.316406 245.101562 290.128906 256.113281 299.082031 C 269.433594 309.898438 286.40625 320.097656 280.679688 340.835938 C 280.015625 343.21875 279.195312 345.113281 278.179688 346.53125 C 277.660156 347.273438 277.570312 347.214844 277.882812 346.382812 C 283.425781 332.042969 275.140625 323.058594 263.246094 315.714844 C 253.253906 309.574219 242.464844 305.25 233.21875 297.839844 C 220.847656 287.894531 213.5625 271.996094 216.347656 256.046875 C 218.125 245.90625 222.316406 236.195312 227.242188 227.230469 C 226.222656 225.242188 225.214844 223.265625 224.222656 221.269531 C 219.089844 211.011719 211.671875 201.847656 207.054688 191.382812 C 206.917969 191.058594 206.964844 191.027344 207.207031 191.292969 C 217.128906 202.296875 229.039062 208.011719 241.59375 214.832031 Z M 241.59375 214.832031 " fill-opacity="1" fill-rule="evenodd"/></g></svg>