<svg xmlns="http://www.w3.org/2000/svg" width="35" height="46">
    <path fill="#FF6E0D" fill-rule="evenodd" d="M31.125 34.659c-.515 2.049-1.666 3.515-2.611 3.3a.85.85 0 0 1-.224-.088c-.062.126-.126.252-.198.395-.243.481-.502.934-.773 1.364-.028.046-.059.084-.088.129-.291.453-.595.875-.908 1.273-.107.136-.214.262-.323.392-.252.301-.507.586-.766.855-.109.112-.215.226-.324.332-.061.06-.121.129-.182.187-.285.27-.571.519-.856.752l-.022.019-.005.004c-.039.032-.078.058-.117.09-.242.192-.482.374-.719.541-.096.068-.189.126-.283.189-.179.12-.356.237-.529.342-.103.062-.202.118-.303.175-.16.091-.317.178-.47.257a11.583 11.583 0 0 1-.718.338c-.09.038-.178.076-.264.109a7.12 7.12 0 0 1-.387.139c-.075.025-.151.051-.222.072a5.115 5.115 0 0 1-.355.089c-.053.011-.111.027-.159.036a2.554 2.554 0 0 1-.407.042h-.001l-.048-.001c-.048-.002-.113-.015-.167-.02-.072-.008-.138-.012-.22-.027-.071-.013-.155-.036-.233-.055-.091-.022-.177-.04-.278-.069-.087-.027-.186-.064-.281-.097-.105-.036-.206-.067-.319-.112-.105-.041-.219-.095-.329-.143-.116-.05-.226-.094-.346-.152-.122-.058-.251-.13-.377-.196-.12-.063-.236-.12-.36-.19-.136-.077-.279-.17-.42-.257-.121-.074-.239-.141-.362-.223-.152-.1-.308-.217-.463-.328-.117-.084-.232-.159-.35-.249-.181-.138-.363-.293-.544-.445-.095-.079-.188-.149-.283-.232a15.937 15.937 0 0 1-1.096-1.062l-.013-.012c-.313-.334-.619-.7-.92-1.082-.086-.111-.169-.228-.255-.342a16.914 16.914 0 0 1-.663-.962c-.084-.131-.168-.26-.25-.396-.28-.465-.55-.949-.798-1.47a.872.872 0 0 1-.227.089c-.762.174-1.659-.747-2.248-2.187-2.977-2.328-4.94-6.07-6.013-11.744-.271-1.431-.036-3.548.707-4.545 1.964-2.632 5.672-5.886 11.776-7.542a30.88 30.88 0 0 1 5.38-.939c1.264-.111 2.6-.159 4.016-.132a36.884 36.884 0 0 0-4.016-.354c-1.973-.06-3.762.064-5.38.334C5.766 12.144 1.947 16.771.617 20.226-2.015 8.959 4.014 1.866 13.531.321a26.29 26.29 0 0 1 5.38-.292c.201.009.402.02.604.033 1.584.102 3.033.403 4.335.854 5.271 1.828 8.119 6.128 7.627 9.8 2.275 1.305 6.804 16.162-.352 23.943zm-16.132 4.428c.026.078.044.154.088.237.032.062.085.127.126.191.05.077.092.152.154.231.055.069.128.137.191.206.069.074.13.149.208.223.074.069.164.135.246.203.084.069.161.141.252.207.09.065.192.122.289.183.097.062.188.127.291.183.101.056.211.099.317.148.109.051.213.107.325.15.109.041.223.066.334.099.118.036.233.078.354.103.112.024.226.027.34.041.132.016.262.042.395.044.119.002.233-.024.35-.036.13-.013.262-.013.39-.041.097-.021.188-.061.283-.09.14-.042.282-.077.417-.134.072-.03.137-.073.207-.107.149-.072.3-.142.44-.227.044-.027.081-.06.124-.088.157-.102.312-.206.451-.319.018-.014.031-.03.049-.044.157-.131.307-.264.437-.399l.001-.001c.145-.149.272-.298.377-.44l.004-.006c.104-.141.188-.275.249-.397.061-.124.098-.235.108-.328-.556.472-2.242.423-3.091.753a1.61 1.61 0 0 1-.385.09c-.049.006-.1.004-.15.007-.084.006-.168.015-.253.013l-.023-.002-.025.001c-.107-.003-.203-.017-.302-.028-.048-.006-.101-.007-.146-.014a2.087 2.087 0 0 1-.356-.082c-.92-.329-2.497-.08-3.122-.682.009.048.039.102.056.152zm-.069-.243c.588.338 1.449.358 2.272.365.509.005 1.006.005 1.405.071.054.009.143.013.237.016l.051.001.116-.001.086-.002c.063-.003.121-.007.16-.014.737-.125 2.87-.111 3.538-.46-.006-.074-.023-.092-.067-.107-.447-.163-2.134-.714-2.919-.761a.989.989 0 0 0-.274.014 2.813 2.813 0 0 1-.618.09l-.023-.003-.025.003a2.341 2.341 0 0 1-.59-.09c-.485-.131-2.273.502-2.988.718-.13.039-.237.069-.28.073-.058.007-.083.038-.082.077l.001.01zm10.421-22.915c2.444-.34 3.81-1.805 4.645-3.492-1.315 1.182-3.548 1.776-6.14 2.299-1.557.314-3.243.603-4.939.977-1.833.405-3.677.912-5.38 1.66-.808.356-1.585.765-2.314 1.245-4.294 2.831-6.67 8.68-4.626 15.559-.146-.758-.181-1.477-.117-2.091.709 2.31 1.723 3.728 2.612 4.931-.626-1.78-1.779-3.979-2.319-8.455a.63.63 0 0 0-.036-.2c.393-3.194 1.661-6.534 5.085-8.659a19.218 19.218 0 0 1 1.715-.95 16.44 16.44 0 0 1 1.444-.621c.153-.058.296-.094.447-.146.308-.105.619-.214.918-.297.177-.049.346-.08.52-.122.261-.063.525-.132.78-.182.194-.038.381-.063.572-.095.217-.036.437-.078.651-.109l.028-.003a.918.918 0 0 0 .02-.003c.449-.063.889-.112 1.328-.161.551-.062 1.099-.123 1.646-.196.225.654.524 1.616.562 2.726.063 1.85-.599 4.109-3.535 6.031.358-.052.691-.119 1.013-.193.095-.022.186-.046.278-.07.23-.059.451-.124.662-.194.083-.027.169-.054.249-.083.273-.099.535-.204.777-.32l.036-.019a7.2 7.2 0 0 0 .647-.358c.066-.04.128-.082.191-.124.151-.1.296-.204.433-.312.054-.042.109-.083.161-.126.177-.148.345-.301.498-.459.044-.046.08-.094.122-.141.119-.131.238-.262.343-.398.053-.07.098-.142.148-.213.083-.117.168-.233.242-.353.021-.033.037-.068.057-.101.133-.223.251-.45.358-.679.029-.063.059-.126.087-.19a9.953 9.953 0 0 0 .313-.814c.082-.245.152-.488.215-.728l.051-.193c.061-.242.118-.482.168-.712 3.287 3.264 4.443 7.26 4.903 10.308a31.48 31.48 0 0 1-.198 1.375c-.044.265-.091.504-.138.746-.027.141-.054.286-.082.421a20.661 20.661 0 0 1-.264 1.118c-.046.174-.092.35-.139.512-.36 1.27-.753 2.264-1.091 3.113-.08.201-.153.378-.224.543.896-1.215 1.906-2.659 2.601-5.015.054.393.066.835.031 1.308.529-2.847-.147-12.287-6.015-17.295z"/>
</svg>
